<svg xmlns="http://www.w3.org/2000/svg" xmlns:xlink="http://www.w3.org/1999/xlink" viewBox="0 0 149.33 62.76"><defs><style>.cls-1,.cls-17,.cls-19,.cls-26{fill:none;}.cls-2{isolation:isolate;}.cls-3{clip-path:url(#clip-path);}.cls-4{fill:#9ea2a4;}.cls-5{fill:#272425;}.cls-6{fill:#a11c27;}.cls-7{fill:#5c5f60;}.cls-8{fill:#c10e1a;}.cls-20,.cls-28,.cls-29,.cls-9{fill:#fff;}.cls-10{opacity:0.9;mix-blend-mode:multiply;}.cls-11{clip-path:url(#clip-path-8);}.cls-12{clip-path:url(#clip-path-9);}.cls-13{clip-path:url(#clip-path-10);}.cls-14{clip-path:url(#clip-path-11);}.cls-15{clip-path:url(#clip-path-12);}.cls-16{fill:#562a99;}.cls-17{stroke:#b7de36;stroke-miterlimit:10;stroke-width:0.04px;}.cls-18{fill:#b7de36;}.cls-19{stroke:#562a99;stroke-linejoin:round;stroke-width:0.25px;}.cls-20{font-size:1.34px;}.cls-20,.cls-26,.cls-28,.cls-29{font-family:MyriadPro-Regular, Myriad Pro;}.cls-21{letter-spacing:0.11em;}.cls-22{letter-spacing:0.1em;}.cls-23{letter-spacing:0.11em;}.cls-24{letter-spacing:0.08em;}.cls-25{letter-spacing:0.11em;}.cls-26,.cls-28{font-size:2.7px;letter-spacing:0.04em;}.cls-26{stroke:#fff;stroke-miterlimit:1;stroke-width:0.03px;}.cls-27{letter-spacing:0em;}.cls-29{font-size:1.32px;}.cls-30{letter-spacing:0.02em;}.cls-31{letter-spacing:0.02em;}.cls-32{letter-spacing:0.01em;}.cls-33{letter-spacing:-0.01em;}.cls-34{letter-spacing:0.02em;}.cls-35{letter-spacing:0.02em;}.cls-36{letter-spacing:0.02em;}.cls-37{letter-spacing:0.03em;}</style><clipPath id="clip-path" transform="translate(-288.02 -204.82)"><rect class="cls-1" x="288.02" y="204.82" width="149.33" height="62.76"/></clipPath><clipPath id="clip-path-8" transform="translate(-288.02 -204.82)"><rect class="cls-1" x="292.86" y="206.27" width="40.98" height="22.05"/></clipPath><clipPath id="clip-path-9" transform="translate(-288.02 -204.82)"><rect class="cls-1" x="362.87" y="205.47" width="44.09" height="27.35"/></clipPath><clipPath id="clip-path-10" transform="translate(-288.02 -204.82)"><rect class="cls-1" x="394.4" y="217.27" width="22.23" height="11.71"/></clipPath><clipPath id="clip-path-11" transform="translate(-288.02 -204.82)"><rect class="cls-1" x="342.51" y="207.43" width="29.41" height="22.79"/></clipPath><clipPath id="clip-path-12" transform="translate(-288.02 -204.82)"><rect class="cls-1" x="323.66" y="207.09" width="35.35" height="23.1"/></clipPath></defs><g class="cls-2"><g id="Character_1" data-name="Character 1"><g class="cls-3"><g class="cls-3"><path class="cls-4" d="M407.3,227.45l-2.21.61a1.1,1.1,0,0,1-1.39-.88l-.41-2.42a.52.52,0,0,1,.79-.53l3.38,2.09a.62.62,0,0,1-.16,1.13m-9,.36c-.41-5.6-.67-7.5-.8-8.15l.95.45c.11,1.07.39,3.77.42,4.6a13.56,13.56,0,0,1-.57,3.1m-.37,2.51a50.86,50.86,0,0,1-8.18,1.59c-1.72.06-14.16,0-16.76,0-.17-7.57-1.25-19.59-1.25-19.59a83.71,83.71,0,0,1,10.08,1.72,100,100,0,0,1,11.42,4.22,23,23,0,0,1,4.07,2c.11.25.51,6.71.62,8s.27,1.86,0,2.06m-35-2.71a1.74,1.74,0,0,1-1.76,1.73l-8-.08a1.74,1.74,0,0,1-1.73-1.79l.27-11.45a1.75,1.75,0,0,1,1.75-1.71h7.88a1.75,1.75,0,0,1,1.75,1.77Zm-13.13.14a1.6,1.6,0,0,1-1.64,1.56l-10-.18a1.58,1.58,0,0,1-1.08-.44l-4-3.8a1.62,1.62,0,0,1-.51-1.24l.33-8.14a1.6,1.6,0,0,1,1.62-1.54l14.05.12a1.6,1.6,0,0,1,1.59,1.66Zm-24.82-13L324.29,226a1.56,1.56,0,0,1-1.59,1.46l-19.45-.54a1.54,1.54,0,0,1-1.49-1.79l1.31-8.36a3.86,3.86,0,0,1,3.74-3.26l1.28,0,.37.59h.76l.43-.62,10.28-.21.37.58H321l.46-.61,1.93,0a1.55,1.55,0,0,1,1.58,1.64m112,37a6.72,6.72,0,0,0,.21-1.88c0-.86.07-3.27,0-3.72s-1.5-3.39-1.5-3.39-.37-3.25-1-4a23.49,23.49,0,0,0-2.28-2.18l-.53-.48h0a4.74,4.74,0,0,1-.65-.69l.24-.3s-4-2.72-6.28-4.07a51.47,51.47,0,0,0-6.22-3.15,19.32,19.32,0,0,1-3.16-.63c-.71-.33-4.86-2.74-5.78-3.26s-4.72-2.57-5.83-3.14-12.24-5.8-16.77-7.55a58.36,58.36,0,0,0-6.43-2.14c-7-1.54-18.4-2-26.24-2.21s-20.14-.06-29.26.08-24.44.66-24.44.66l-9.6.75a.57.57,0,0,0-.34.1l4.76,1.71s-1.52,5.25-2.14,8.62c-.48,2.55-1.15,6.68-1.55,10.23l0,.24c-.11,1.07-.21,2.09-.26,3-.22,3.89-.33,9.16-.33,11.89s.29,5-.29,5.74a1.64,1.64,0,0,1-.29.3,7.11,7.11,0,0,1-2.31,1.09c-.17,0-.31,0-.36-.31a.29.29,0,0,0,0,.09,3.68,3.68,0,0,0,.46,2.85c.82,1.26,2.27,1.23,4.33,1.52.38,0,.94.11,1.6.16,2.88.24,7.64.47,7.64.47s.16.31.29.54c.35.64.89,1.52.89,1.52a21.38,21.38,0,0,1,.14-7.42,12.31,12.31,0,0,1,5.39-7.5,14.25,14.25,0,0,1,8.82-2,12.86,12.86,0,0,1,9.4,6.1c1.75,3.13,1.93,6.26,2.11,9.18l71.62.06a30.81,30.81,0,0,1,1.25-5.13h.59s1-5.13,4.18-7.51,7.86-4.71,13.71-2a12.73,12.73,0,0,1,7.18,11.66,17.63,17.63,0,0,1-.33,3.18s4.74-.77,6.89-1.17l.95-.2a2.51,2.51,0,0,0,1.73-2.11l-.78-.6a.44.44,0,0,0,.08-.2c.05-.47.45-2.12.59-2.72" transform="translate(-288.02 -204.82)"/><path class="cls-5" d="M407.3,227.45l0-.12-2.2.62a1.24,1.24,0,0,1-.27,0,1,1,0,0,1-1-.82l-.41-2.42a.2.2,0,0,1,0-.07.4.4,0,0,1,.12-.28.39.39,0,0,1,.28-.12.42.42,0,0,1,.21.06l3.38,2.1a.47.47,0,0,1,.24.42.51.51,0,0,1-.37.49l0,.11,0,.12a.73.73,0,0,0,.54-.72.7.7,0,0,0-.35-.63l-3.38-2.09a.61.61,0,0,0-.34-.1.63.63,0,0,0-.64.64.45.45,0,0,0,0,.11l.41,2.42a1.24,1.24,0,0,0,1.21,1,1.26,1.26,0,0,0,.33,0l2.21-.61Zm-9,.36h.12a74.41,74.41,0,0,0-.92-8.14l-.05.11.95.45.05-.11h-.12c.11,1.07.39,3.77.42,4.6v.09a8.18,8.18,0,0,1-.21,1.51c-.12.56-.26,1.1-.36,1.46l.12,0h0l.11,0c.1-.36.25-.91.37-1.47a8.31,8.31,0,0,0,.22-1.56.31.31,0,0,0,0-.1,39.6,39.6,0,0,0-1.61-5c.12.63.39,2.53.79,8.13l.06.7.18-.68Zm-.37,2.51-.07-.1h0l-.12.05c-.25.08-.76.21-1.42.37-1,.23-2.31.5-3.54.73a28.13,28.13,0,0,1-3,.42c-.74,0-3.48,0-6.55,0l-10.21,0v.12h.12c-.17-7.58-1.25-19.6-1.25-19.6h-.12l0,.12.28,0a79.7,79.7,0,0,1,9.79,1.69,97.15,97.15,0,0,1,11.4,4.22c1.05.45,2,.89,2.78,1.24.37.17.67.33.89.45l.26.16s.05,0,.06.06h0l0,0h0l0,0h0l0,0-.05,0h0l0,0-.05,0s0,.05,0,.11c.07.48.2,2.15.32,3.84s.23,3.41.28,4c.07.77.15,1.28.15,1.59a.7.7,0,0,1,0,.24.19.19,0,0,1-.07.11l.07.1.08.1a.44.44,0,0,0,.15-.23,1.08,1.08,0,0,0,0-.32c0-.35-.08-.85-.14-1.62s-.19-2.58-.32-4.39c-.06-.9-.13-1.77-.18-2.44,0-.33-.05-.6-.08-.81s0-.19,0-.25,0-.06,0-.08a.64.64,0,0,1,0-.07.31.31,0,0,0-.07-.09,2.56,2.56,0,0,0-.51-.32c-.72-.39-2.07-1-3.55-1.64a100.26,100.26,0,0,0-11.44-4.23,84.44,84.44,0,0,0-10.1-1.72l-.15,0,0,.15s0,.19,0,.53c.21,2.4,1.06,12.43,1.21,19.06V232H383.2c3.08,0,5.81,0,6.56,0a37.48,37.48,0,0,0,4.73-.75c.89-.18,1.72-.36,2.35-.52.32-.07.58-.14.78-.2l.24-.07.08,0,.07,0Zm-35-2.71h-.12a1.63,1.63,0,0,1-1.62,1.61h0l-8-.08a1.63,1.63,0,0,1-1.61-1.63v0l.27-11.45a1.64,1.64,0,0,1,1.63-1.59h7.88a1.59,1.59,0,0,1,1.15.48,1.63,1.63,0,0,1,.48,1.15v0l-.13,11.53H363l.13-11.53v0a1.87,1.87,0,0,0-1.87-1.87h-7.88a1.86,1.86,0,0,0-1.87,1.82l-.27,11.46v0a1.87,1.87,0,0,0,1.85,1.87l8,.08h0a1.86,1.86,0,0,0,1.86-1.85Zm-13.13.14h-.12a1.49,1.49,0,0,1-1.49,1.45h0l-10-.18a1.51,1.51,0,0,1-1-.4l-4.05-3.81a1.5,1.5,0,0,1-.47-1.09v-.06l.33-8.13a1.49,1.49,0,0,1,1.49-1.43h0l14.05.12A1.48,1.48,0,0,1,350,215.7v0l-.35,12h.24l.36-12v-.05a1.74,1.74,0,0,0-1.72-1.74l-14.05-.12h0a1.75,1.75,0,0,0-1.74,1.67l-.32,8.13v.07A1.74,1.74,0,0,0,333,225l4.05,3.8a1.68,1.68,0,0,0,1.16.47l10,.19h0a1.73,1.73,0,0,0,1.73-1.69Zm-24.82-13h-.12L324.16,226a1.42,1.42,0,0,1-1.42,1.34h0l-19.45-.54a1.43,1.43,0,0,1-1.39-1.42,1.79,1.79,0,0,1,0-.23l1.31-8.36a3.74,3.74,0,0,1,3.62-3.16l1.22,0,.36.59h.89l.43-.62,10.15-.21.37.58h.82l.46-.61,1.87,0h0a1.41,1.41,0,0,1,1,.42,1.43,1.43,0,0,1,.42,1v.09h.24v-.1a1.67,1.67,0,0,0-1.67-1.67h0l-2,0-.46.61h-.57l-.36-.58-10.42.21-.42.62h-.63l-.37-.59-1.35,0a4,4,0,0,0-3.86,3.37l-1.31,8.37a2.11,2.11,0,0,0,0,.26,1.68,1.68,0,0,0,1.63,1.67l19.44.53h.05a1.67,1.67,0,0,0,1.67-1.57l.67-11.19Zm112,37,.12,0a6.83,6.83,0,0,0,.21-1.9c0-.57,0-1.83,0-2.75v-.6q0-.25,0-.39a1.51,1.51,0,0,0-.09-.3c-.16-.44-.52-1.22-.83-1.89l-.59-1.23-.11.05h.12s-.1-.82-.27-1.74c-.09-.45-.2-.94-.33-1.36a2.91,2.91,0,0,0-.47-1,21.5,21.5,0,0,0-2.29-2.19l-.53-.48h0a4.43,4.43,0,0,1-.63-.67l-.1.07.1.08.32-.4-.11-.08s-4-2.72-6.29-4.08c-1.16-.68-2.6-1.44-3.81-2-.6-.3-1.15-.57-1.57-.76l-.54-.24a1.76,1.76,0,0,0-.33-.11c-.25,0-.86-.13-1.5-.23l-.93-.18a4,4,0,0,1-.71-.22c-.17-.07-.56-.28-1.06-.56-1.51-.84-4-2.29-4.71-2.68-.92-.52-4.72-2.58-5.84-3.15s-12.24-5.79-16.78-7.56A57.85,57.85,0,0,0,381,211l-.12,0,0,.12.12,0,0-.12c-7-1.54-18.42-2-26.26-2.22-2.77-.08-6.08-.11-9.62-.11-6.5,0-13.75.11-19.65.2-9.13.15-24.44.66-24.44.66h0l-9.6.74h0a.71.71,0,0,0-.41.14l-.14.14,4.94,1.77,0-.11-.12,0s-1.52,5.26-2.14,8.64c-.48,2.55-1.15,6.68-1.55,10.24l0,.24c-.12,1.07-.21,2.09-.26,3-.22,3.9-.33,9.17-.33,11.9,0,1.37.07,2.62.07,3.61a9.37,9.37,0,0,1-.07,1.28,1.41,1.41,0,0,1-.54,1.06,5.47,5.47,0,0,1-1.3.73,6.34,6.34,0,0,1-.95.33h-.06a.1.1,0,0,1-.08,0,.38.38,0,0,1-.08-.19l-.08-.49-.15.47,0,.1a3.56,3.56,0,0,0-.11.93,3.74,3.74,0,0,0,.58,2,2.75,2.75,0,0,0,1.78,1.17,25.88,25.88,0,0,0,2.64.4l1.61.17c2.88.24,7.65.46,7.65.46v-.12l-.11,0c.05.12.16.32.29.55.36.64.9,1.53.9,1.53l.33.55-.11-.64v-.06a23,23,0,0,1-.25-3.42,17.37,17.37,0,0,1,.4-3.89,12.24,12.24,0,0,1,5.33-7.43,13.75,13.75,0,0,1,7.52-2c.4,0,.81,0,1.23,0a11.51,11.51,0,0,1,5.33,1.94,12.38,12.38,0,0,1,4,4.1c1.74,3.1,1.92,6.2,2.1,9.12v.12l71.83.06,0-.1s0-.25.11-.65c.11-.59.29-1.5.49-2.37a10.32,10.32,0,0,1,.64-2.07l-.11-.06v.12h.69l0-.1,0-.05a16.77,16.77,0,0,1,1-3.08A10.57,10.57,0,0,1,407,246a14.18,14.18,0,0,1,8.43-3.2,12.29,12.29,0,0,1,5.15,1.18,11.85,11.85,0,0,1,5.62,5.39,12.86,12.86,0,0,1,1.51,5.71c0,.15,0,.3,0,.44-.09,1.4-.18,2.19-.23,2.63,0,.23-.06.36-.07.44l0,.07h0l.07,0-.07,0h0l.07,0-.07,0-.08.2.21,0s4.74-.78,6.9-1.18l.95-.2a2.65,2.65,0,0,0,1.82-2.22v-.07l-.84-.64-.07.1.1.07a.55.55,0,0,0,.1-.26c0-.22.14-.75.26-1.29s.26-1.11.33-1.42l-.12,0-.11,0c-.08.3-.21.87-.34,1.41s-.23,1.08-.26,1.32a.3.3,0,0,1-.06.14l-.07.1.87.67.08-.09-.12,0a2.42,2.42,0,0,1-1.64,2l-.94.19c-1.07.2-2.8.49-4.25.74l-1.87.31-.77.12,0,.12.11.05a2.4,2.4,0,0,0,.11-.57c.06-.45.14-1.25.23-2.66,0-.14,0-.29,0-.45a13.06,13.06,0,0,0-1.53-5.82,12.13,12.13,0,0,0-5.73-5.5,12.49,12.49,0,0,0-5.26-1.21,14.45,14.45,0,0,0-8.58,3.25,11.15,11.15,0,0,0-3.32,4.7,17.83,17.83,0,0,0-.9,2.89l.12,0v-.12h-.67l0,.06a7.31,7.31,0,0,0-.44,1.29c-.44,1.61-.82,3.87-.82,3.88l.12,0v-.13l-71.62-.06v.13h.12c-.18-2.92-.35-6.07-2.13-9.23a12.49,12.49,0,0,0-4.05-4.18,11.76,11.76,0,0,0-5.45-2c-.42,0-.84,0-1.24,0a13.88,13.88,0,0,0-7.65,2.08,12.44,12.44,0,0,0-5.44,7.58,17.84,17.84,0,0,0-.41,3.94,22.54,22.54,0,0,0,.27,3.53l.12,0,.11-.06-.32-.52c-.18-.3-.4-.68-.58-1a5.35,5.35,0,0,1-.27-.53l0-.07h-.08l-.79,0c-1.47-.08-4.69-.25-6.85-.43-.66-.05-1.22-.11-1.59-.16-1-.15-1.92-.21-2.62-.39a2.52,2.52,0,0,1-1.63-1.08,3.38,3.38,0,0,1-.55-1.88,3.67,3.67,0,0,1,.1-.87l0-.08-.12,0-.12,0a.68.68,0,0,0,.14.31.29.29,0,0,0,.26.11h.11a6.42,6.42,0,0,0,1-.35,5.37,5.37,0,0,0,1.36-.77l0,0,0,0a1.52,1.52,0,0,0,.31-.31,2,2,0,0,0,.32-.89,10.21,10.21,0,0,0,.07-1.32c0-1-.07-2.25-.07-3.61,0-2.72.11-8,.33-11.89.06-.89.15-1.9.27-3a1.64,1.64,0,0,1,0-.23c.4-3.55,1.07-7.68,1.55-10.22.31-1.69.84-3.84,1.3-5.57.23-.87.44-1.63.59-2.18s.25-.87.25-.87l0-.11-4.86-1.74-.05.11.09.09s.09-.06.26-.07h0l9.6-.75v0l.68,0c3.06-.1,15.78-.5,23.76-.63,5.91-.1,13.15-.21,19.65-.21,3.54,0,6.85,0,9.61.12,7.84.24,19.22.67,26.22,2.21l.11,0,0-.12-.12,0,0,.12a56.64,56.64,0,0,1,6.41,2.13c4.52,1.75,15.65,7,16.76,7.54s4.92,2.64,5.83,3.15l3,1.7,1.74,1c.5.28.9.49,1.08.58a5.24,5.24,0,0,0,.75.23c.45.1,1,.18,1.42.25s.85.12,1,.16a1.19,1.19,0,0,1,.28.1,65.67,65.67,0,0,1,5.9,3c1.15.68,2.72,1.7,4,2.54l1.62,1.09.65.44.07-.1-.09-.07-.3.37.05.08a4.94,4.94,0,0,0,.67.7h0l.54.47a23.33,23.33,0,0,1,2.27,2.17,3,3,0,0,1,.42.91,14.46,14.46,0,0,1,.43,2c0,.3.09.57.12.76s0,.3,0,.3v0l.22.47c.2.42.51,1.07.77,1.65.13.29.25.57.34.79a3.22,3.22,0,0,1,.16.45,2.5,2.5,0,0,1,0,.35c0,.17,0,.38,0,.6,0,.91,0,2.18,0,2.75a6.92,6.92,0,0,1-.2,1.85Z" transform="translate(-288.02 -204.82)"/><path class="cls-6" d="M292.16,222.86l-1.07-.21v0c0,.15-.09.62-.09.62s-.54,2.33-.87,4.22-.85,6.6-.95,8c-.09,1.17-.25,3.91-.28,5.59a11.85,11.85,0,0,0,1.75,3.14h.2s-.69-.51-.36-7a106,106,0,0,1,1.67-14.37" transform="translate(-288.02 -204.82)"/><path class="cls-5" d="M292.16,222.86l0-.12-1.07-.21a.14.14,0,0,0-.09,0,.08.08,0,0,0,0,.08h0c0,.07,0,.22,0,.36s0,.26,0,.26H291l-.12,0s-.54,2.32-.87,4.22-.85,6.61-.95,8c-.09,1.18-.25,3.91-.28,5.6v0a12.48,12.48,0,0,0,1.77,3.18.13.13,0,0,0,.1,0h.2a.11.11,0,0,0,.11-.08.12.12,0,0,0,0-.14l-.05.06.06,0h0l-.05.06.06,0h0a1.84,1.84,0,0,1-.23-.75,19.12,19.12,0,0,1-.18-3c0-.84,0-1.86.09-3.11a107.68,107.68,0,0,1,1.67-14.35.12.12,0,0,0-.1-.14l0,.12-.12,0a106.15,106.15,0,0,0-1.67,14.38c-.07,1.25-.09,2.28-.09,3.12a17.34,17.34,0,0,0,.22,3.28c.12.54.23.64.27.68l.08-.1v-.12h-.2v.12l.09-.08,0-.06a11.79,11.79,0,0,1-1.69-3l-.11,0H289c0-1.68.19-4.41.28-5.58.1-1.35.63-6.06.95-7.95.17-.94.38-2,.56-2.81.08-.41.16-.76.22-1l.08-.39h0s.07-.47.09-.63h-.12l.12,0v0l-.12,0,0,.12,1.08.21,0-.12-.12,0Z" transform="translate(-288.02 -204.82)"/><path class="cls-5" d="M289.15,252.34l0,.11a1.55,1.55,0,0,0,.45.05,9.1,9.1,0,0,0,1.39-.15l0-.12-.08-.09a5.47,5.47,0,0,1-1.3.73,7.87,7.87,0,0,1-.95.33h-.06a.1.1,0,0,1-.08,0,.38.38,0,0,1-.08-.19l-.12,0,.12,0a2.48,2.48,0,0,1,.5-.84l-.1-.08-.09.08a.81.81,0,0,0,.42.24l0-.11,0-.12a.51.51,0,0,1-.29-.17.18.18,0,0,0-.09,0,.18.18,0,0,0-.1,0,2.88,2.88,0,0,0-.54.92V253a.68.68,0,0,0,.14.31.31.31,0,0,0,.26.11h.11a6.42,6.42,0,0,0,1-.35,5.37,5.37,0,0,0,1.36-.77.11.11,0,0,0,0-.14.13.13,0,0,0-.14-.07l-.12,0a8.44,8.44,0,0,1-1.22.13,1.87,1.87,0,0,1-.39,0Z" transform="translate(-288.02 -204.82)"/><path class="cls-5" d="M289.15,252.34l0,.11a1.55,1.55,0,0,0,.45.05,9.1,9.1,0,0,0,1.39-.15l0-.12-.08-.09a5.47,5.47,0,0,1-1.3.73,7.87,7.87,0,0,1-.95.33h-.06a.1.1,0,0,1-.08,0,.38.38,0,0,1-.08-.19l-.12,0,.12,0a2.48,2.48,0,0,1,.5-.84l-.1-.08-.09.08a.81.81,0,0,0,.42.24l0-.11,0-.12a.51.51,0,0,1-.29-.17.18.18,0,0,0-.09,0,.18.18,0,0,0-.1,0,2.88,2.88,0,0,0-.54.92V253a.68.68,0,0,0,.14.31.31.31,0,0,0,.26.11h.11a6.42,6.42,0,0,0,1-.35,5.37,5.37,0,0,0,1.36-.77.11.11,0,0,0,0-.14.13.13,0,0,0-.14-.07l-.12,0a8.44,8.44,0,0,1-1.22.13,1.87,1.87,0,0,1-.39,0Z" transform="translate(-288.02 -204.82)"/><path class="cls-5" d="M328.33,211.08h-.65l0-.29h.66s0,.1,0,.3" transform="translate(-288.02 -204.82)"/><path class="cls-5" d="M407.3,227.45l-2.21.61a1.1,1.1,0,0,1-1.39-.88l-.41-2.42a.52.52,0,0,1,.79-.53l3.38,2.09a.62.62,0,0,1-.16,1.13m3-.68c-.4-.33-5.12-3.12-8.7-5.05v0c.22,1.53.54,4.36.78,8.08,3.41-.88,6.61-1.72,7.16-1.87,1.14-.31,1.27-.76.76-1.18" transform="translate(-288.02 -204.82)"/><path class="cls-5" d="M397.5,219.66l1.37.65c.72.33,1.69.83,2.75,1.41v0c.22,1.53.54,4.36.78,8.08l-3.9,1c-.52-8-.85-10.41-1-11.16" transform="translate(-288.02 -204.82)"/><path class="cls-5" d="M325,214.79,324.29,226a1.56,1.56,0,0,1-1.59,1.46l-19.45-.54a1.55,1.55,0,0,1-1.49-1.79l1.31-8.36a3.86,3.86,0,0,1,3.74-3.26l1.28,0,.37.59h.76l.43-.62,10.28-.21.37.58H321l.46-.61,1.93,0a1.55,1.55,0,0,1,1.58,1.64m-17.7-3.23c-4.95.12-5.33.42-5.33.42-1.88.86-2.47,3.57-3,5.57a64.66,64.66,0,0,0-1.38,9.52,4.7,4.7,0,0,0,1.62,3.28l27.71.45s0-4.93.11-9.33c.13-3.84.6-9.1.71-10.39-3.33,0-15.51.36-20.42.48" transform="translate(-288.02 -204.82)"/><path class="cls-5" d="M371.74,211.71v.62s1.08,12,1.25,19.59h-.48l-3.6,0-.2-20.17v-.34h0c1.09.09,2.1.19,3,.29" transform="translate(-288.02 -204.82)"/><path class="cls-5" d="M328.33,211.08c-.1.95-.43,4.06-.68,8.95-.29,5.93,0,11.56,0,11.56l-.76-.79s0-4.93.11-9.33c.13-3.84.6-9.1.71-10.39h.65" transform="translate(-288.02 -204.82)"/><path class="cls-5" d="M402.64,260.32s.06-1.61,0-3.33a19.74,19.74,0,0,1,.26-3.55h-.12s1-5.13,4.18-7.51,7.86-4.71,13.71-2a12.72,12.72,0,0,1,7.18,11.66,17.63,17.63,0,0,1-.33,3.18s4.74-.77,6.89-1.17l-.12.58a50,50,0,0,1-7,1.05v-.36H427l.12,1.92-2.23-.33a10.86,10.86,0,1,0-20.6-4.81,10.9,10.9,0,0,0,2.21,6.58A17.08,17.08,0,0,1,402,261.1a9.37,9.37,0,0,1-2.65-2.08c1,0,1.65,0,1.67.05s1.58,1.25,1.58,1.25" transform="translate(-288.02 -204.82)"/><path class="cls-5" d="M303.6,252.74a12.31,12.31,0,0,1,5.39-7.5,14.25,14.25,0,0,1,8.82-2,12.86,12.86,0,0,1,9.4,6.1c1.75,3.13,1.93,6.26,2.11,9.18l71.62.06a30.81,30.81,0,0,1,1.25-5.13h.71a19.74,19.74,0,0,0-.26,3.55c.05,1.72,0,3.33,0,3.33s-1.44-1.1-1.58-1.25-.63,0-1.67-.05c-7-.08-33.29,0-33.29,0s-3.28.33-5.55.33-7.15,0-7.71-.3l-22.24,0a7.06,7.06,0,0,1-1,1.33l.18,1.21-.89-.66a12.74,12.74,0,0,1-3.36,1.81,11,11,0,1,0-20-4h-1.39v1.5h-.65a21.38,21.38,0,0,1,.14-7.42" transform="translate(-288.02 -204.82)"/><path class="cls-5" d="M302.57,258.64c-.85-.05-3.41-.21-4.81-.35a9,9,0,0,1-3.12-.66c2.88.24,7.65.47,7.65.47a4.84,4.84,0,0,0,.28.54" transform="translate(-288.02 -204.82)"/><path class="cls-7" d="M303.75,252.17q-.09.29-.15.57a21.38,21.38,0,0,0-.14,7.42s-.54-.88-.89-1.52c-.13-.23-.24-.43-.29-.54a9.7,9.7,0,0,1,1.47-5.93" transform="translate(-288.02 -204.82)"/><path class="cls-5" d="M401,258.32l.12,0c.08-.45.26-1.43.48-2.42.11-.49.23-1,.36-1.41a5.35,5.35,0,0,1,.36-1l-.11-.06v.12h.71v-.12l-.12,0a20.49,20.49,0,0,0-.27,3.13V257c0,.57,0,1.14,0,1.63,0,.71,0,1.28,0,1.54h.12l.07-.1-.06,0a8.16,8.16,0,0,1-.8-.69,2.75,2.75,0,0,1-.75-1.05l-.12,0,.12,0-.12,0-.12,0a3.38,3.38,0,0,0,1,1.29,7.14,7.14,0,0,0,.75.62.11.11,0,0,0,.12,0,.12.12,0,0,0,.07-.1c0-.27,0-.84,0-1.55,0-.5,0-1.06,0-1.64,0-.14,0-.28,0-.43a18.08,18.08,0,0,1,.14-2.13c0-.29.06-.53.09-.7s0-.26,0-.26a.12.12,0,0,0,0-.1.13.13,0,0,0-.1,0h-.71a.11.11,0,0,0-.11.06,6.51,6.51,0,0,0-.38,1.06c-.37,1.3-.72,3.18-.84,3.86v.05Z" transform="translate(-288.02 -204.82)"/><path class="cls-5" d="M329.32,258.51l71.62.06a30.81,30.81,0,0,1,1.25-5.13h.71a20.31,20.31,0,0,0-.27,3.55c.06,1.72,0,3.33,0,3.33s-1.43-1.1-1.57-1.25-.63,0-1.67-.05c-7-.08-33.29,0-33.29,0s-3.28.33-5.55.33-7.15,0-7.71-.3l-22.24,0h-1l-.09,1.33.18,1.21a4.34,4.34,0,0,1-.42-3" transform="translate(-288.02 -204.82)"/><path class="cls-5" d="M292.19,222.68a60.42,60.42,0,0,1,2.47-9.65l-3.1-1.33a22.25,22.25,0,0,1,2.09,1.13c0,.09-1.15,4.06-1.64,5.8s-.89,3.81-.92,4l1.07.21,0-.18" transform="translate(-288.02 -204.82)"/><path class="cls-5" d="M292.19,222.68l.12,0a56,56,0,0,1,1.55-6.73c.25-.89.48-1.61.65-2.12.08-.25.15-.44.2-.58s.07-.2.07-.2a.12.12,0,0,0-.07-.15l-3.11-1.33a.11.11,0,0,0-.15.06.12.12,0,0,0,.05.16c.37.18.9.45,1.33.68l.54.3.15.09,0,0h0l0,0,0,0h0l0,0,0,0,.09-.07h-.11s0,.06,0,.07l.09-.07h-.11l0,.07c-.15.6-1.16,4.1-1.62,5.71-.24.86-.46,1.81-.63,2.58l-.2,1c-.05.26-.08.43-.09.49a.11.11,0,0,0,.1.13l1.07.21a.15.15,0,0,0,.09,0,.1.1,0,0,0,0-.08l0-.18-.12,0-.12,0,0,.18.12,0,0-.12-1.07-.21,0,.12.12,0s0-.22.09-.47c.15-.76.47-2.26.83-3.54.24-.87.65-2.29,1-3.51.18-.61.33-1.17.45-1.58.06-.21.1-.38.14-.5a1.31,1.31,0,0,0,0-.15v-.09a.1.1,0,0,0,0-.08l-.05-.05a3.85,3.85,0,0,0-.33-.2c-.45-.25-1.24-.66-1.75-.91l-.05.11-.05.11,3.1,1.33.05-.11-.11,0a59.71,59.71,0,0,0-2.48,9.67Z" transform="translate(-288.02 -204.82)"/><path class="cls-5" d="M295.83,212.22l-4.76-1.71a.87.87,0,0,0-.12.31c-.06.23-.07.58.14.66l.47.22,3.1,1.33a60.42,60.42,0,0,0-2.47,9.65l0,.18,1.15.09c.13-.77.26-1.49.38-2.11.62-3.37,2.14-8.62,2.14-8.62" transform="translate(-288.02 -204.82)"/><path class="cls-5" d="M295.83,212.22l0-.12-4.75-1.7a.12.12,0,0,0-.13,0,.47.47,0,0,0-.11.19c0,.06,0,.12-.05.18a1.65,1.65,0,0,0,0,.32.69.69,0,0,0,0,.28.33.33,0,0,0,.2.2l.16.07.3.15h0l3.1,1.33.05-.11-.11,0a59.71,59.71,0,0,0-2.48,9.67l0,.18a.1.1,0,0,0,0,.09.12.12,0,0,0,.09,0l1.15.09a.11.11,0,0,0,.13-.1c.13-.77.26-1.49.38-2.1.31-1.69.84-3.84,1.3-5.58.23-.86.44-1.62.59-2.17s.25-.87.25-.87a.12.12,0,0,0-.08-.15l0,.12-.12,0s-1.52,5.26-2.14,8.64c-.12.62-.25,1.33-.38,2.11l.12,0v-.12l-1.15-.09v.12l.12,0,0-.18a56,56,0,0,1,1.55-6.73c.25-.89.48-1.61.65-2.12.08-.25.15-.44.19-.58l.08-.2a.12.12,0,0,0-.07-.15l-3.11-1.33,0,.11.05-.11-.31-.15-.17-.08a.1.1,0,0,1-.07-.07.45.45,0,0,1,0-.18,1.09,1.09,0,0,1,0-.26c0-.07,0-.12,0-.17a.28.28,0,0,1,.05-.08l-.09-.09,0,.12,4.76,1.7,0-.11-.12,0Z" transform="translate(-288.02 -204.82)"/></g><rect class="cls-5" x="291.44" y="222.74" width="0.24" height="1.22" transform="translate(-271.9 261.47) rotate(-78.87)"/><g class="cls-3"><path class="cls-5" d="M290.94,252.23h0a7.11,7.11,0,0,1-2.31,1.09c-.17,0-.31,0-.36-.31a3,3,0,0,1,.52-.88" transform="translate(-288.02 -204.82)"/><path class="cls-8" d="M291.85,234.3c0-.9.15-1.92.26-3l0-.24c.3-2.69.76-5.71,1.17-8.12l-1.15-.09a106,106,0,0,0-1.67,14.37c-.33,6.46.36,7,.36,7h-.2a11.85,11.85,0,0,1-1.75-3.14c0,.26,0,.5,0,.7,0,.52,0,1.66,0,3l2.66.09c0-2.9.13-7.24.32-10.57" transform="translate(-288.02 -204.82)"/><path class="cls-5" d="M291.85,234.3H292c0-.89.14-1.9.26-3a1.94,1.94,0,0,1,0-.24c.3-2.68.76-5.7,1.17-8.11a.1.1,0,0,0,0-.09.11.11,0,0,0-.09,0l-1.15-.09a.12.12,0,0,0-.13.1,106,106,0,0,0-1.67,14.38c-.07,1.25-.09,2.28-.09,3.12a16.21,16.21,0,0,0,.23,3.28c.11.54.22.64.27.68l.07-.1v-.12h-.2v.12l.09-.08,0-.06a11.56,11.56,0,0,1-1.68-3,.12.12,0,0,0-.14-.08.12.12,0,0,0-.1.12c0,.19,0,.37,0,.53V242c0,.6,0,1.61,0,2.78a.12.12,0,0,0,.12.12l2.65.09a.11.11,0,0,0,.09,0,.12.12,0,0,0,0-.08c0-2.89.13-7.24.33-10.57h-.25c-.19,3.33-.3,7.68-.33,10.58h.13v-.13l-2.66-.08v.12H289c0-1.17,0-2.18,0-2.78v-.94h-.12l-.11,0a12.28,12.28,0,0,0,1.76,3.18.13.13,0,0,0,.1,0h.2a.11.11,0,0,0,.11-.08.12.12,0,0,0,0-.14l-.05.06.06,0h0l-.05.06.06,0h0a1.84,1.84,0,0,1-.23-.75,19.12,19.12,0,0,1-.18-3c0-.84,0-1.86.09-3.11a107.68,107.68,0,0,1,1.67-14.35l-.12,0V223l1.15.09V223l-.12,0c-.41,2.42-.87,5.44-1.17,8.13l0,.24c-.11,1.07-.21,2.09-.26,3Z" transform="translate(-288.02 -204.82)"/><path class="cls-5" d="M291.52,244.87l-2.65-.09c0,2.5-.06,5.73,0,7.24l-.1.11a.71.71,0,0,0,.36.21,6.4,6.4,0,0,0,1.79-.11,1.64,1.64,0,0,0,.29-.3c.58-.76.29-3,.29-5.74v-1.32" transform="translate(-288.02 -204.82)"/><path class="cls-5" d="M362.91,227.61a1.74,1.74,0,0,1-1.76,1.73l-8-.08a1.74,1.74,0,0,1-1.73-1.79l.27-11.45a1.75,1.75,0,0,1,1.75-1.71h7.88a1.75,1.75,0,0,1,1.75,1.77Zm-13.13.14a1.61,1.61,0,0,1-1.64,1.56l-10-.18a1.58,1.58,0,0,1-1.08-.44l-4-3.8a1.62,1.62,0,0,1-.51-1.24l.33-8.14a1.6,1.6,0,0,1,1.62-1.54l14.05.12a1.6,1.6,0,0,1,1.59,1.66Zm1.44-16.67c-3.05,0-9.43,0-14.86,0-3.41,0-6.44,0-8,0-.11.95-.43,4.06-.68,8.95-.3,5.93,0,11.56,0,11.56s37.85.52,39.4.5a8.12,8.12,0,0,0,1.89-.15l-.2-20.17c-4.88-.38-12.57-.62-17.49-.69" transform="translate(-288.02 -204.82)"/><path class="cls-5" d="M296.48,210.11c-.24.74-.43,1.36-.65,2.09" transform="translate(-288.02 -204.82)"/><path class="cls-5" d="M296.37,210.07c-.25.74-.44,1.36-.66,2.1l0,.12.23.06,0-.11c.21-.74.4-1.36.65-2.1l0-.11-.23-.08Z" transform="translate(-288.02 -204.82)"/><path class="cls-5" d="M299.15,230.35l27.71.45.76.79s0,.13,0,.37c-13.33-.24-28.14-.72-28.14-.72s-1.92-1.54-2.15-3.25a32.07,32.07,0,0,1,.53-6.62c.2-1.34,1-6,2-7.6a3.9,3.9,0,0,1,3.71-2.29c2-.15,9.82-.43,12.71-.48l11.43-.21,0,.29c-3.33,0-15.51.36-20.42.48s-5.33.42-5.33.42c-1.88.86-2.48,3.57-3,5.57a64.66,64.66,0,0,0-1.38,9.52,4.7,4.7,0,0,0,1.62,3.28" transform="translate(-288.02 -204.82)"/><path class="cls-5" d="M367,232.09a8.12,8.12,0,0,0,1.89-.15v.55c-12.15-.13-26.37-.3-29.46-.34L327.63,232c0-.24,0-.37,0-.37s37.85.52,39.4.5" transform="translate(-288.02 -204.82)"/><path class="cls-5" d="M372.52,231.92H373c0,.21,0,.42,0,.62l-4.08,0v-.55Z" transform="translate(-288.02 -204.82)"/><path class="cls-5" d="M397.31,220.26a23,23,0,0,0-4.07-2,100,100,0,0,0-11.42-4.22,83.71,83.71,0,0,0-10.08-1.72v-.62a59.41,59.41,0,0,1,13.48,2.83,109.06,109.06,0,0,1,12.28,5.12c.15.75.48,3.2,1,11.16-2.27.58-4.16,1.05-4.77,1.17a37.07,37.07,0,0,1-6.48.68c-.88,0-6.82,0-14.25-.13,0-.2,0-.41,0-.62,2.6,0,15,.05,16.76,0a51.09,51.09,0,0,0,8.18-1.59c.27-.2.12-.76,0-2.06s-.51-7.75-.62-8" transform="translate(-288.02 -204.82)"/><path class="cls-5" d="M368.71,211.77c-4.88-.38-12.57-.62-17.49-.69-3.05,0-9.43,0-14.86,0-3.41,0-6.44,0-8,0,0-.2,0-.3,0-.3,3,0,29.22-.17,39,.54l1.32.1h0Z" transform="translate(-288.02 -204.82)"/><path class="cls-5" d="M368.7,211.42c1.09.09,2.1.19,3,.29v.62l-3-.56v-.34Z" transform="translate(-288.02 -204.82)"/></g><polygon class="cls-5" points="10.19 0.06 13.38 4.84 13.72 4.84 10.41 0.06 10.19 0.06"/><g class="cls-3"><path class="cls-5" d="M298.21,204.89V205h.19l3.22,4.66h-.19l-3.17-4.76-.05,0v0l0,0,3.18,4.78.05,0h.35a.07.07,0,0,0,.05,0v-.06l-3.31-4.78-.05,0h-.22s0,0-.06,0v.06Z" transform="translate(-288.02 -204.82)"/><path class="cls-9" d="M436.53,245.73a12.44,12.44,0,0,1,.16,2.59,1.41,1.41,0,0,1-.08.46c-.21.43-.92.44-1.83.48s-2.45,0-2.45,0a45.33,45.33,0,0,1,.08-5.11,1.87,1.87,0,0,1,1.43-1.33c.41-.05.91-.08,1.29-.1a27.79,27.79,0,0,1,1.4,3" transform="translate(-288.02 -204.82)"/><path class="cls-7" d="M436.47,245.74a12.92,12.92,0,0,1,.18,2.11c0,.17,0,.33,0,.47a1.27,1.27,0,0,1-.08.44.58.58,0,0,1-.22.22,4.19,4.19,0,0,1-1.56.22c-.61,0-1.49,0-2,0h-.43v.06h.06s0-.34,0-.85,0-1.18,0-1.85,0-1.07,0-1.51c0-.22,0-.41,0-.56a1.82,1.82,0,0,1,.06-.32,1.76,1.76,0,0,1,1.37-1.28,11.92,11.92,0,0,1,1.3-.1v-.06l-.05,0,.77,1.52a12.93,12.93,0,0,1,.62,1.43v.06l.12,0,0-.06a10.44,10.44,0,0,0-.63-1.45c-.29-.61-.61-1.23-.76-1.52a.08.08,0,0,0-.06,0c-.38,0-.89.05-1.3.1a1.92,1.92,0,0,0-1.48,1.37,2.67,2.67,0,0,0-.06.35c0,.47-.06,1.27-.06,2.08,0,1.33,0,2.7,0,2.7a.06.06,0,0,0,.06.06h.43c.52,0,1.41,0,2,0a11.59,11.59,0,0,0,1.19-.1,1.59,1.59,0,0,0,.42-.15.59.59,0,0,0,.27-.27,1.36,1.36,0,0,0,.09-.48c0-.15,0-.31,0-.48a11.3,11.3,0,0,0-.19-2.14v-.06l-.12,0Z" transform="translate(-288.02 -204.82)"/><path class="cls-7" d="M423.58,235.26v.06h.47c.86,0,2.65-.07,3.13-.07h.15a.46.46,0,0,0,.2,0,.13.13,0,0,0,.06,0l0-.06a.09.09,0,0,0,0-.06l0,0v.06l3.48.28v-.06l-.05,0a4.8,4.8,0,0,0,.66.69l0,0V236a7.79,7.79,0,0,0-1.33-.14c-1.89-.1-5.07-.11-5.95-.11h-.24v.06l0,0-.57-.56,0,0v0l-.05,0,.58.55,0,0h.24c.59,0,2.2,0,3.76,0,.78,0,1.55,0,2.18.07a7.11,7.11,0,0,1,1.31.14.08.08,0,0,0,.07,0,.06.06,0,0,0,0-.08,5.07,5.07,0,0,1-.64-.67l0,0-3.48-.28s0,0-.05,0,0,.05,0,.07l0,0h0v0l0,0h0a.51.51,0,0,1-.17,0h-.15c-.64,0-3.61.08-3.61.08a.05.05,0,0,0-.05,0,.06.06,0,0,0,0,.06Z" transform="translate(-288.02 -204.82)"/><path class="cls-7" d="M402.34,229.9c0,.13,0,.19,0,.31.24,3.91.41,7.42.47,10.26,0,.66,0,1.34,0,2a15.48,15.48,0,0,1-.86,6,25.13,25.13,0,0,0-1.57,5.27c-.09.46-.11,1.17-.24,1.78a2.57,2.57,0,0,1-.29.81.94.94,0,0,1-.56.42l-.37,0c-3.16.13-24.71.17-41.74.17-11.28,0-20.57,0-21.22,0a17,17,0,0,1-2-.13,1.41,1.41,0,0,1-1.1-.82c-.24-.51-.78-2.17-1.32-3.94s-1.08-3.67-1.34-4.66c-.51-2-2-8.4-2.28-10.47-.19-1.65-.24-4.07-.25-5v-.06h-.13V232c0,.91.06,3.32.25,5,.25,2.09,1.77,8.52,2.28,10.5.26,1,.8,2.87,1.34,4.65s1.08,3.44,1.33,4a1.54,1.54,0,0,0,1.19.89,14,14,0,0,0,2.06.13c.65,0,9.94,0,21.22,0,9.08,0,19.45,0,27.63,0l10.19-.06,3.05,0,.88,0,.39,0a1,1,0,0,0,.63-.48,3.35,3.35,0,0,0,.39-1.33c.07-.48.1-1,.16-1.3a25.44,25.44,0,0,1,1.56-5.24,15.67,15.67,0,0,0,.87-6.08c0-.67,0-1.35,0-2-.06-2.84-.23-6.35-.47-10.26,0-.14,0-.19,0-.32v-.06h-.12Z" transform="translate(-288.02 -204.82)"/></g><polygon class="cls-7" points="39.68 41.03 41.8 41.05 41.81 40.93 39.68 40.91 39.68 41.03"/><rect class="cls-7" x="296.92" y="236.86" width="0.12" height="16.36" transform="matrix(0.03, -1, 1, 0.03, -245.46, 329.2)"/><rect class="cls-7" x="4.66" y="21.69" width="4.68" height="0.12"/><rect class="cls-7" x="4.08" y="26.3" width="7.72" height="0.12"/><rect class="cls-7" x="48.84" y="52.13" width="0.12" height="1.42"/><g class="cls-3"><path class="cls-7" d="M435.13,242.77v.06l.55,0v-.06l-.06,0a1.42,1.42,0,0,1,.07.14l.05,0v-.06l-.53.07V243l.06,0-.1-.19-.06,0v0l-.05,0,.1.2a.07.07,0,0,0,.06,0l.52-.07.05,0v-.06l-.07-.14a.05.05,0,0,0-.05,0h-.56l-.05,0v.06Z" transform="translate(-288.02 -204.82)"/><path class="cls-7" d="M370.42,236.18h.06a.36.36,0,0,1,.36-.36h6.67a.36.36,0,0,1,.36.36v.34a.36.36,0,0,1-.36.36h-6.67a.36.36,0,0,1-.36-.36v-.34h-.12v.34a.48.48,0,0,0,.48.48h6.67a.48.48,0,0,0,.48-.48v-.34a.48.48,0,0,0-.48-.49h-6.67a.48.48,0,0,0-.48.49Z" transform="translate(-288.02 -204.82)"/><path class="cls-7" d="M360.41,235.76v.06h6.67a.36.36,0,0,1,.36.36v.33a.37.37,0,0,1-.36.37h-6.67a.37.37,0,0,1-.36-.37v-.33a.36.36,0,0,1,.36-.36v-.13a.48.48,0,0,0-.48.49v.33a.48.48,0,0,0,.48.49h6.67a.48.48,0,0,0,.48-.49v-.33a.48.48,0,0,0-.48-.49h-6.67Zm-.61.22h-.06v.88a1.36,1.36,0,0,0,1.37,1.36h5.47a1.36,1.36,0,0,0,1.37-1.36V236a1.37,1.37,0,0,0-1.37-1.37h-5.47a1.37,1.37,0,0,0-1.37,1.37h.12a1.22,1.22,0,0,1,.37-.88,1.2,1.2,0,0,1,.88-.36h5.47a1.2,1.2,0,0,1,.88.36,1.22,1.22,0,0,1,.37.88v.88a1.25,1.25,0,0,1-1.25,1.24h-5.47a1.25,1.25,0,0,1-1.25-1.24V236Z" transform="translate(-288.02 -204.82)"/><path class="cls-7" d="M370.12,236h-.07v.88a1.37,1.37,0,0,0,1.37,1.36h5.51a1.36,1.36,0,0,0,1.37-1.36V236a1.37,1.37,0,0,0-1.37-1.37h-5.51a1.37,1.37,0,0,0-1.37,1.37h.13a1.26,1.26,0,0,1,.36-.88,1.23,1.23,0,0,1,.88-.36h5.51a1.23,1.23,0,0,1,1.24,1.24v.88a1.23,1.23,0,0,1-.36.88,1.26,1.26,0,0,1-.88.36h-5.51a1.23,1.23,0,0,1-1.24-1.24V236Z" transform="translate(-288.02 -204.82)"/><path class="cls-7" d="M370.84,235.76v.06h6.67a.36.36,0,0,1,.36.36v.34a.36.36,0,0,1-.36.36h-6.67a.36.36,0,0,1-.36-.36v-.34a.36.36,0,0,1,.36-.36v-.13a.48.48,0,0,0-.48.49v.34a.48.48,0,0,0,.48.48h6.67a.48.48,0,0,0,.48-.48v-.34a.48.48,0,0,0-.48-.49h-6.67Z" transform="translate(-288.02 -204.82)"/><path class="cls-7" d="M377.36,236.53h.06v-.36a.51.51,0,0,0-.3-.47l0,.06v.06h.42a.36.36,0,0,1,.36.36v.33a.37.37,0,0,1-.36.37h-.42v.06l0,.05a.51.51,0,0,0,.3-.46h-.12a.4.4,0,0,1-.23.35.07.07,0,0,0,0,.07.07.07,0,0,0,.06.05h.42a.48.48,0,0,0,.48-.49v-.33a.48.48,0,0,0-.48-.49h-.42a.07.07,0,0,0-.06.05.07.07,0,0,0,0,.07.4.4,0,0,1,.23.36v.36Z" transform="translate(-288.02 -204.82)"/><path class="cls-7" d="M371,236.53h.06v-.36a.4.4,0,0,1,.23-.36.07.07,0,0,0,0-.07.06.06,0,0,0-.06-.05h-.42a.48.48,0,0,0-.48.49v.33a.48.48,0,0,0,.48.49h.42a.06.06,0,0,0,.06-.05.07.07,0,0,0,0-.07.4.4,0,0,1-.23-.35h-.12a.51.51,0,0,0,.3.46l0-.05v-.06h-.42a.37.37,0,0,1-.36-.37v-.33a.36.36,0,0,1,.36-.36h.42v-.06l0-.06a.51.51,0,0,0-.3.47v.36Z" transform="translate(-288.02 -204.82)"/><path class="cls-7" d="M367.08,235.76v.06a.36.36,0,0,1,.36.36v.34a.36.36,0,0,1-.36.36h-6.67a.36.36,0,0,1-.36-.36v-.34a.36.36,0,0,1,.36-.36h6.67v-.13h-6.67a.48.48,0,0,0-.48.49v.34a.48.48,0,0,0,.48.48h6.67a.48.48,0,0,0,.48-.48v-.34a.48.48,0,0,0-.48-.49Z" transform="translate(-288.02 -204.82)"/><path class="cls-7" d="M366.93,236.53H367v-.36a.51.51,0,0,0-.3-.47l0,.06v.06h.42a.36.36,0,0,1,.36.36v.33a.37.37,0,0,1-.36.37h-.42v.06l0,.05a.51.51,0,0,0,.3-.46h-.12a.4.4,0,0,1-.23.35.07.07,0,0,0,0,.07.06.06,0,0,0,.06.05h.42a.48.48,0,0,0,.48-.49v-.33a.48.48,0,0,0-.48-.49h-.42a.06.06,0,0,0-.06.05.07.07,0,0,0,0,.07.4.4,0,0,1,.23.36v.36Z" transform="translate(-288.02 -204.82)"/><path class="cls-7" d="M360.56,236.53h.06v-.36a.4.4,0,0,1,.23-.36.07.07,0,0,0,0-.07.06.06,0,0,0-.06-.05h-.42a.48.48,0,0,0-.48.49v.33a.48.48,0,0,0,.48.49h.42a.06.06,0,0,0,.06-.05.07.07,0,0,0,0-.07.4.4,0,0,1-.23-.35h-.12a.51.51,0,0,0,.3.46l0-.05v-.06h-.42a.37.37,0,0,1-.36-.37v-.33a.36.36,0,0,1,.36-.36h.42v-.06l0-.06a.51.51,0,0,0-.3.47v.36Z" transform="translate(-288.02 -204.82)"/><path class="cls-7" d="M361.26,234.09v.06h15.52a1.91,1.91,0,0,1,1.92,1.92v.7a1.87,1.87,0,0,1-.56,1.35,1.92,1.92,0,0,1-1.36.57H361.26a1.95,1.95,0,0,1-1.93-1.92v-.7a1.92,1.92,0,0,1,.57-1.36,1.88,1.88,0,0,1,1.36-.56V234a2,2,0,0,0-2.05,2v.7a2.05,2.05,0,0,0,2.05,2h15.52a2,2,0,0,0,2-2v-.7a2,2,0,0,0-2-2H361.26Z" transform="translate(-288.02 -204.82)"/><path class="cls-7" d="M417.11,227.63s.52.59,1.19,1.25a8.78,8.78,0,0,0,2.15,1.64,37.25,37.25,0,0,1,7.05,4.61l.05,0,.08-.09-.05,0a37.58,37.58,0,0,0-7.08-4.63,8.64,8.64,0,0,1-2.11-1.62c-.34-.33-.64-.64-.85-.86l-.34-.38,0,0-.09.08Z" transform="translate(-288.02 -204.82)"/><path class="cls-7" d="M424.16,235.86l.51.38c.47.35,1.17.89,1.78,1.4.31.25.59.5.81.71a2.33,2.33,0,0,1,.44.47,2.57,2.57,0,0,1,.13.38c.18.63.42,1.83.61,3,.1.55.18,1.09.25,1.51a8.35,8.35,0,0,1,.09.88.82.82,0,0,1-.45.66,9.35,9.35,0,0,1-.95.48h0v.08l0,0h.08s0,0,0,0a.08.08,0,0,0,0-.05h-.07l0,0,0,.11.06,0h0v0h0v0l0-.06v.06h0l0-.06v.06h0v-.06l0,.05h0v-.06l0,.05,0-.05h-.06s0,.05,0,.05l0-.05h0l0,0a.05.05,0,0,0,0,0h.06l0,0,0,0,0-.05h0l0,0,0-.05,0,0,0,0h0l0,0,0,0h0v0h0v0h0v0l0,.06v-.06h0l0,.06v0h0l.05,0v0h-.06l.05,0-.05,0,0,0,0,0-.05,0,0,0,0,0,0,0h0l0,0,0,0h0a8,8,0,0,0,1-.49.93.93,0,0,0,.51-.76,10.15,10.15,0,0,0-.13-1.08c-.12-.79-.3-1.85-.49-2.77-.09-.46-.18-.88-.26-1.22a3.64,3.64,0,0,0-.23-.71,1.67,1.67,0,0,0-.25-.31c-.84-.85-3.31-2.69-3.31-2.69l-.05,0-.08.09Z" transform="translate(-288.02 -204.82)"/><path class="cls-7" d="M433.8,246.24h-.06c0,.37,0,.74,0,1.11h.06v-.06l-.45,0-.35,0c-.23,0-.44-.06-.66-.11v.06h.06c0-.18,0-.37,0-.55s0-.26,0-.39h-.07v.06h.08l1.34,0h.09v-.06h0v-.06h-.09l-1.34,0h-.08a.06.06,0,0,0-.06.06v.94a.06.06,0,0,0,0,.06c.22.05.45.08.67.11l.36,0,.45,0h0l0-.05c0-.37,0-.74.05-1.11l0,0-.05,0Z" transform="translate(-288.02 -204.82)"/><path class="cls-7" d="M433,247.27v.06l.36,0,.45,0v-.06h-.06v.86h.06v-.06a14,14,0,0,1-1.44.13v.06h.06c0-.34,0-.75,0-1.18h-.06l0,.06c.22.05.45.08.67.11v-.12c-.22,0-.44-.06-.66-.11l-.05,0,0,0c0,.43,0,.84,0,1.18l0,0h0a14.39,14.39,0,0,0,1.46-.13.06.06,0,0,0,.05-.06v-.86a.06.06,0,0,0-.05-.06l-.45,0-.35,0Z" transform="translate(-288.02 -204.82)"/><path class="cls-7" d="M433.76,248.21h.06v-.27h-.06V248L434,248a3,3,0,0,1,1,0,4.06,4.06,0,0,1,.76.17,1.16,1.16,0,0,1,.6.4.5.5,0,0,0,.22.24h0v-.06l-.06,0a.14.14,0,0,1,0,.07l-.07.09a1,1,0,0,1-.63.27,9.82,9.82,0,0,1-1.08.08c-.61,0-1.49,0-2,0h-.43v.06h.06v-.25c0-.17,0-.42,0-.71h-.06v.06a14.39,14.39,0,0,0,1.46-.13.06.06,0,0,0,.05-.06h-.06v-.06a14,14,0,0,1-1.44.13.06.06,0,0,0-.06.06c0,.3,0,.54,0,.71s0,.25,0,.25a.06.06,0,0,0,.06.06h.43c.52,0,1.41,0,2,0a10.19,10.19,0,0,0,1.09-.09,1.14,1.14,0,0,0,.71-.31.36.36,0,0,0,.08-.12l0-.08v0l0,0h0l0,.06,0,0c-.06,0-.1-.11-.16-.2a1.32,1.32,0,0,0-.66-.45,4.42,4.42,0,0,0-.78-.17,2.81,2.81,0,0,0-.5,0,2.92,2.92,0,0,0-.51,0l-.27,0a.07.07,0,0,0,0,.06v.28h.06v0Z" transform="translate(-288.02 -204.82)"/><path class="cls-7" d="M433.8,246.24v-.06h-.09l-1.34,0h-.08v.06h.07V246c0-.43,0-.82,0-1.14a3.5,3.5,0,0,1,.08-.64,2.17,2.17,0,0,1,.26-.53,1.59,1.59,0,0,1,1.11-.76c.41,0,.92-.08,1.3-.09v-.07l-.05,0,.77,1.52a12.15,12.15,0,0,1,.62,1.43c0,.09,0,.24.06.4a1,1,0,0,1,0,.17h.07v-.05a4.88,4.88,0,0,0-1.45-.2,7.54,7.54,0,0,0-1.39.13v.06l0,.06.1,0a8.48,8.48,0,0,1,1.26-.11,5,5,0,0,1,1.42.19h0l0,0a1.11,1.11,0,0,1,0-.17c0-.17-.05-.32-.08-.42a11.39,11.39,0,0,0-.62-1.45c-.3-.61-.62-1.23-.77-1.52a.08.08,0,0,0-.06,0c-.38,0-.89.05-1.3.1a1.71,1.71,0,0,0-1.2.81,2.66,2.66,0,0,0-.28.56,3.46,3.46,0,0,0-.08.68c0,.31,0,.71,0,1.14a1.69,1.69,0,0,0,0,.23l0,.05h.12l1.34,0h.11Z" transform="translate(-288.02 -204.82)"/><path class="cls-7" d="M434.3,255.26a15,15,0,0,0,1.7.08c.6,0,1.09,0,1.09,0h.06v-.13H436a14.68,14.68,0,0,1-1.68-.07h-.06l0,.12Z" transform="translate(-288.02 -204.82)"/><path class="cls-7" d="M435.69,242.69h-.56c-.38,0-.89.05-1.3.1a1.92,1.92,0,0,0-1.48,1.37,2.67,2.67,0,0,0-.06.35c0,.47-.06,1.27-.06,2.08,0,1.33,0,2.7,0,2.7a.06.06,0,0,0,.06.06h.43c.52,0,1.41,0,2,0a11.59,11.59,0,0,0,1.19-.1,1.59,1.59,0,0,0,.42-.15.59.59,0,0,0,.27-.27,1.38,1.38,0,0,0,.09-.49h-.12c0,.28,0,.74,0,1.17,0,.27,0,.53,0,.72a1.11,1.11,0,0,1-.05.24c0,.06,0,.09-.06.09l-.16,0c-.61.08-2.52.09-3.46.09h-.54a.07.07,0,0,0-.06,0,1.9,1.9,0,0,0-.09.78,8.14,8.14,0,0,0,0,.89,4.55,4.55,0,0,0,.55,1.76,2.11,2.11,0,0,0,1.13,1.06,2.39,2.39,0,0,0,.35.07h.06l0-.12h-.06l-.34-.06a2,2,0,0,1-1.05-1,4.3,4.3,0,0,1-.54-1.71c0-.37-.05-.66-.05-.88a3.45,3.45,0,0,1,0-.59.53.53,0,0,1,0-.11v0h0l-.05,0v.06h.54l2.14,0c.38,0,.72,0,1,0l.34,0,.2,0a.24.24,0,0,0,.11-.16,3.33,3.33,0,0,0,.1-1c0-.44,0-.9-.05-1.17a.06.06,0,0,0-.12,0,1.27,1.27,0,0,1-.08.44.58.58,0,0,1-.22.22,4.19,4.19,0,0,1-1.56.22c-.61,0-1.49,0-2,0h-.43v.06h.06s0-.34,0-.85,0-1.18,0-1.85,0-1.08,0-1.51c0-.22,0-.41,0-.56a1.82,1.82,0,0,1,.06-.32,1.79,1.79,0,0,1,1.37-1.29c.41,0,.92-.08,1.3-.09l.55,0h.06v-.12Z" transform="translate(-288.02 -204.82)"/><path class="cls-7" d="M328.14,210.8h0s.47-1,2.85-1l12.29,0,5.44,0c3.15.05,11.45.24,14.32.39l3.92.2,1.27.07.49,0v0l1.17.11a93.13,93.13,0,0,1,9.32,1.29A99.86,99.86,0,0,1,394,217.05c2.45,1.1,4.3,1.88,5.55,2.59a6.56,6.56,0,0,1,1.44,1,1.92,1.92,0,0,1,.59,1.07v.06l.12,0v-.06a2,2,0,0,0-.62-1.13c-1-1.05-3.35-2-7-3.64a99.73,99.73,0,0,0-14.78-5.16c-3.32-.77-10.51-1.41-10.51-1.41h0l-5.67-.29c-2.88-.15-11.18-.35-14.33-.39-1,0-3.09,0-5.44,0l-12.29,0c-2.49,0-2.95,1-3,1.06l0,.06.11.05Z" transform="translate(-288.02 -204.82)"/><path class="cls-5" d="M368.62,210.36h0Zm-.1.13.12.93h.12l-.12-.93h-.12m.39,21.45h0v.55h-.06V234H369v-1.54h-.06Zm.07,2.21h-.12v4.54H369Zm0,4.66h-.12l0,18.18H369Zm0,18.3h0Z" transform="translate(-288.02 -204.82)"/></g><polygon class="cls-5" points="80.69 6.61 80.69 6.95 80.89 27.12 80.96 27.11 80.75 6.96 80.69 6.95 80.69 6.61 80.68 6.6 80.69 6.61"/><g class="cls-3"><path class="cls-5" d="M368.64,211.77l.21,20.19.06,0-.2-20.17h-.07" transform="translate(-288.02 -204.82)"/><path class="cls-5" d="M368.91,231.94l-.06,0v.53h.06Z" transform="translate(-288.02 -204.82)"/><path class="cls-5" d="M369,231.94h-.06v.55H369Z" transform="translate(-288.02 -204.82)"/><path class="cls-5" d="M368.64,211.42h0v.34h.07v-.34h-.07" transform="translate(-288.02 -204.82)"/><path class="cls-5" d="M368.7,211.42h0v.34h.05v-.35h-.06" transform="translate(-288.02 -204.82)"/><path class="cls-5" d="M369,257h-.12v.12H369V257Z" transform="translate(-288.02 -204.82)"/></g><path class="cls-5" d="M368.87,238.69v.12H369v-.12Zm0-4.66v.12H369V234Z" transform="translate(-288.02 -204.82)"/><g class="cls-3"><path class="cls-5" d="M368.57,210.37h-.07l0,.11h.12v-.12h-.06" transform="translate(-288.02 -204.82)"/><path class="cls-7" d="M290.19,256.92c3.59.07,5,.07,10,.08h.06v-.12h-.06c-5,0-6.42,0-10-.08h-.06v.13Z" transform="translate(-288.02 -204.82)"/><path class="cls-7" d="M329.4,257l3.5,0h1.22v0a16.15,16.15,0,0,0,1.91.11c.65,0,9.94,0,21.22,0,9.08,0,19.45,0,27.63,0l10.19-.06,3.05,0,.88,0,.39,0a1,1,0,0,0,.63-.48,3.35,3.35,0,0,0,.39-1.33c.07-.48.1-1,.16-1.3a25.44,25.44,0,0,1,1.56-5.24,9,9,0,0,0,.65-2.41h-.06l.05,0a17.9,17.9,0,0,1,7.5-5.62,13.44,13.44,0,0,1,4.67-.81,16.83,16.83,0,0,1,8.55,2.4,14.62,14.62,0,0,1,6.22,8.71c.21.92.37,1.85.51,2.79a4.49,4.49,0,0,0,.21,1.09.86.86,0,0,0,.31.39,1,1,0,0,0,.59.15h.05l1.47,0c.59,0,1.19,0,1.79,0h.06v-.12h-.06c-.6,0-1.2,0-1.79,0l-1.48,0h0a.92.92,0,0,1-.52-.13.89.89,0,0,1-.34-.57,6.57,6.57,0,0,1-.13-.83c-.14-.94-.3-1.87-.51-2.8a14.73,14.73,0,0,0-6.27-8.78,17,17,0,0,0-8.62-2.42,13.79,13.79,0,0,0-4.72.81,18,18,0,0,0-7.54,5.67l0,0a9.13,9.13,0,0,1-.64,2.37,25.13,25.13,0,0,0-1.57,5.27c-.09.46-.11,1.17-.24,1.78a2.57,2.57,0,0,1-.29.81.9.9,0,0,1-.56.42l-.37,0c-3.16.13-24.71.17-41.74.17-11.28,0-20.57,0-21.22,0a17.85,17.85,0,0,1-1.89-.11h0l-4.72,0h-.06V257Z" transform="translate(-288.02 -204.82)"/><path class="cls-7" d="M300.23,257.91c.09-6.73,2.81-11.42,6.71-14a17.28,17.28,0,0,1,9.76-3c.43,0,.88,0,1.33.05,4.64.31,9.86,3.93,12.13,8.06a20.34,20.34,0,0,1,1.66,4.27l0,.05.11,0v-.06a20.21,20.21,0,0,0-1.67-4.29c-2.3-4.17-7.54-7.8-12.23-8.12-.46,0-.91-.05-1.34-.05a17.34,17.34,0,0,0-9.82,3c-3.94,2.58-6.68,7.31-6.77,14.08V258h.12Z" transform="translate(-288.02 -204.82)"/><path class="cls-5" d="M327.33,256.55a11,11,0,1,1-11-11,11,11,0,0,1,11,11" transform="translate(-288.02 -204.82)"/><path class="cls-7" d="M324.57,256.55a8.27,8.27,0,1,1-8.27-8.27,8.27,8.27,0,0,1,8.27,8.27" transform="translate(-288.02 -204.82)"/><path class="cls-5" d="M321.1,256.25l2.08-2.11a.43.43,0,0,0,.09-.46,7.43,7.43,0,0,0-1-1.73.4.4,0,0,0-.44-.15l-2.87.74a.42.42,0,0,1-.52-.3l-.79-2.85a.42.42,0,0,0-.35-.31,6.53,6.53,0,0,0-1-.08,6.77,6.77,0,0,0-1,.08.43.43,0,0,0-.35.31l-.78,2.85a.42.42,0,0,1-.52.3l-2.87-.74a.42.42,0,0,0-.45.15,7.4,7.4,0,0,0-1,1.73.41.41,0,0,0,.09.46l2.08,2.11a.43.43,0,0,1,0,.6L309.42,259a.41.41,0,0,0-.09.46,7.67,7.67,0,0,0,1,1.74.43.43,0,0,0,.45.14l2.87-.74a.42.42,0,0,1,.52.3l.78,2.85a.43.43,0,0,0,.35.31,6.77,6.77,0,0,0,1,.08,6.53,6.53,0,0,0,1-.08.42.42,0,0,0,.35-.31l.79-2.85a.42.42,0,0,1,.52-.3l2.87.74a.41.41,0,0,0,.44-.14,7.71,7.71,0,0,0,1-1.74.43.43,0,0,0-.09-.46l-2.08-2.11a.43.43,0,0,1,0-.6" transform="translate(-288.02 -204.82)"/><path class="cls-7" d="M317.53,256.55a1.23,1.23,0,1,1-1.23-1.23,1.23,1.23,0,0,1,1.23,1.23" transform="translate(-288.02 -204.82)"/><path class="cls-7" d="M316.59,252.2H316a.31.31,0,0,1-.31-.28l-.12-1.62a.31.31,0,0,1,.31-.33h.82a.3.3,0,0,1,.3.33l-.11,1.62a.31.31,0,0,1-.31.28" transform="translate(-288.02 -204.82)"/><path class="cls-7" d="M316.59,260.9H316a.31.31,0,0,0-.31.29l-.12,1.61a.31.31,0,0,0,.31.33h.82a.3.3,0,0,0,.3-.33l-.11-1.61a.31.31,0,0,0-.31-.29" transform="translate(-288.02 -204.82)"/><path class="cls-7" d="M312.68,254.13l-.29.5a.32.32,0,0,1-.41.12l-1.45-.71a.31.31,0,0,1-.14-.43l.41-.7a.3.3,0,0,1,.44-.1l1.34.91a.31.31,0,0,1,.1.41" transform="translate(-288.02 -204.82)"/><path class="cls-7" d="M320.21,258.48l-.29.5a.31.31,0,0,0,.09.41l1.35.91a.31.31,0,0,0,.44-.11l.4-.7a.31.31,0,0,0-.13-.43l-1.46-.71a.3.3,0,0,0-.4.13" transform="translate(-288.02 -204.82)"/><path class="cls-7" d="M312.39,258.48l.29.5a.31.31,0,0,1-.09.41l-1.35.91a.31.31,0,0,1-.44-.11l-.4-.7a.31.31,0,0,1,.13-.43l1.46-.71a.3.3,0,0,1,.4.13" transform="translate(-288.02 -204.82)"/><path class="cls-7" d="M319.92,254.13l.29.5a.31.31,0,0,0,.4.12l1.46-.71a.3.3,0,0,0,.13-.43l-.4-.7a.31.31,0,0,0-.44-.1l-1.35.91a.31.31,0,0,0-.09.41" transform="translate(-288.02 -204.82)"/><path class="cls-5" d="M426.17,255.61a11,11,0,1,1-11-11,11,11,0,0,1,11,11" transform="translate(-288.02 -204.82)"/><path class="cls-7" d="M423.41,255.61a8.26,8.26,0,1,1-8.26-8.26,8.26,8.26,0,0,1,8.26,8.26" transform="translate(-288.02 -204.82)"/><path class="cls-5" d="M420,255.31l2.07-2.1a.44.44,0,0,0,.1-.46,7.5,7.5,0,0,0-1-1.74.42.42,0,0,0-.45-.15l-2.86.75a.43.43,0,0,1-.52-.3l-.78-2.85a.44.44,0,0,0-.35-.31,6.77,6.77,0,0,0-1-.08,6.63,6.63,0,0,0-1,.08.42.42,0,0,0-.35.31l-.78,2.85a.44.44,0,0,1-.53.3l-2.86-.75a.42.42,0,0,0-.44.15,7.5,7.5,0,0,0-1,1.74.46.46,0,0,0,.09.46l2.08,2.1a.43.43,0,0,1,0,.6l-2.08,2.1a.46.46,0,0,0-.09.46,7.5,7.5,0,0,0,1,1.74.43.43,0,0,0,.44.15l2.86-.75a.44.44,0,0,1,.53.3l.78,2.85a.4.4,0,0,0,.35.31,6.63,6.63,0,0,0,1,.08,6.77,6.77,0,0,0,1-.08.43.43,0,0,0,.35-.31l.78-2.85a.43.43,0,0,1,.52-.3l2.86.75a.44.44,0,0,0,.45-.15,7.5,7.5,0,0,0,1-1.74.44.44,0,0,0-.1-.46l-2.07-2.1a.42.42,0,0,1,0-.6" transform="translate(-288.02 -204.82)"/><path class="cls-7" d="M416.38,255.61a1.23,1.23,0,1,1-1.23-1.23,1.23,1.23,0,0,1,1.23,1.23" transform="translate(-288.02 -204.82)"/><path class="cls-7" d="M415.44,251.27h-.58a.32.32,0,0,1-.31-.29l-.11-1.62a.32.32,0,0,1,.31-.33h.81a.32.32,0,0,1,.31.33l-.12,1.62a.32.32,0,0,1-.31.29" transform="translate(-288.02 -204.82)"/><path class="cls-7" d="M415.44,260h-.58a.32.32,0,0,0-.31.29l-.11,1.62a.32.32,0,0,0,.31.33h.81a.32.32,0,0,0,.31-.33l-.12-1.62a.32.32,0,0,0-.31-.29" transform="translate(-288.02 -204.82)"/><path class="cls-7" d="M411.54,253.19l-.29.5a.31.31,0,0,1-.41.12l-1.45-.7a.31.31,0,0,1-.13-.43l.4-.71a.31.31,0,0,1,.44-.1l1.34.91a.31.31,0,0,1,.1.41" transform="translate(-288.02 -204.82)"/><path class="cls-7" d="M419.06,257.53l-.29.5a.31.31,0,0,0,.09.41l1.34.91a.3.3,0,0,0,.44-.1l.41-.7a.3.3,0,0,0-.13-.43l-1.46-.71a.31.31,0,0,0-.4.12" transform="translate(-288.02 -204.82)"/><path class="cls-7" d="M411.25,257.53l.29.5a.3.3,0,0,1-.1.41l-1.34.91a.3.3,0,0,1-.44-.1l-.4-.7a.3.3,0,0,1,.13-.43l1.46-.71a.31.31,0,0,1,.4.12" transform="translate(-288.02 -204.82)"/><path class="cls-7" d="M418.77,253.19l.29.5a.3.3,0,0,0,.4.12l1.46-.7a.31.31,0,0,0,.13-.43l-.41-.71a.31.31,0,0,0-.44-.1l-1.34.91a.31.31,0,0,0-.09.41" transform="translate(-288.02 -204.82)"/><path class="cls-5" d="M397.5,219.66h0l.7.33-.7-.33" transform="translate(-288.02 -204.82)"/><path class="cls-5" d="M397.5,219.66h0c0,.07,0,.16,0,.27v0h0v0h0s0,.06,0,.09c.14,1,.38,3.09.71,7.64a13.66,13.66,0,0,0,.57-3.1c0-.84-.31-3.53-.42-4.6l-.25-.12-.7-.33" transform="translate(-288.02 -204.82)"/><path class="cls-5" d="M397.5,219.67h0m0,0h0m0,0Zm0,0h0m0,0h0m0,0h0m.05.28h0m0,0h0m0,0h0m0,0h0m0,0h0m0,0h0m0,0a.06.06,0,0,1,0,0,.06.06,0,0,0,0,0m0,0Zm0,0h0m0,0h0m0,0h0m0,0s0,.06,0,.09,0-.06,0-.09m0,.09c.14,1,.38,3.09.71,7.64-.33-4.55-.57-6.66-.71-7.64" transform="translate(-288.02 -204.82)"/><g class="cls-10"><g class="cls-11"><path class="cls-5" d="M323.41,213.27h0l-1.87,0-.46.61h-.82l-.37-.58-10.15.21-.43.62h-.89l-.36-.59-1.22,0a3.74,3.74,0,0,0-3.62,3.16l-1.31,8.36a1.79,1.79,0,0,0,0,.23,1.43,1.43,0,0,0,1.39,1.42l19.45.54h0a1.42,1.42,0,0,0,1.42-1.34l.68-11.19v-.09a1.43,1.43,0,0,0-.42-1,1.41,1.41,0,0,0-1-.42" transform="translate(-288.02 -204.82)"/></g></g><path class="cls-5" d="M323.41,213.15h0l-1.93,0-.46.61h-.69l-.37-.58-10.28.21-.43.62h-.76l-.37-.59-1.28,0a3.86,3.86,0,0,0-3.74,3.26l-1.31,8.36a2.29,2.29,0,0,0,0,.25,1.55,1.55,0,0,0,1.51,1.54l19.45.54h0a1.55,1.55,0,0,0,1.55-1.46l.67-11.19v0a1.55,1.55,0,0,0-1.55-1.62h0m-3.18.77h.82l.46-.61,1.87,0h0a1.41,1.41,0,0,1,1,.42,1.43,1.43,0,0,1,.42,1v.09L324.16,226a1.42,1.42,0,0,1-1.42,1.34h0l-19.45-.54a1.43,1.43,0,0,1-1.39-1.42,1.79,1.79,0,0,1,0-.23l1.31-8.36a3.74,3.74,0,0,1,3.62-3.16l1.22,0,.36.59h.9l.42-.62,10.15-.21Z" transform="translate(-288.02 -204.82)"/><path class="cls-5" d="M323.41,213.15h0m0,0h0l-1.93,0-.46.61h-.69l-.37-.58-10.28.21-.43.62h-.76l-.37-.59-1.28,0a3.86,3.86,0,0,0-3.74,3.26l-1.31,8.36a2.29,2.29,0,0,0,0,.25,2.29,2.29,0,0,1,0-.25l1.31-8.36a3.86,3.86,0,0,1,3.74-3.26l1.28,0,.37.59h.76l.43-.62,10.28-.21.37.58H321l.46-.61,1.93,0h0m1.55,1.62v0M324.29,226a1.55,1.55,0,0,1-1.55,1.46,1.55,1.55,0,0,0,1.55-1.46" transform="translate(-288.02 -204.82)"/><g class="cls-10"><g class="cls-12"><path class="cls-5" d="M371.87,212.47c.13,1.39,1.07,12.24,1.24,19.33l10.09,0c3.07,0,5.81,0,6.55,0a28.13,28.13,0,0,0,3-.42c1.23-.23,2.55-.5,3.54-.73.66-.16,1.17-.29,1.42-.37l.12-.05a.19.19,0,0,0,.07-.11.7.7,0,0,0,0-.24c0-.31-.08-.82-.15-1.6-.05-.6-.16-2.32-.28-4s-.25-3.36-.32-3.84c0,0,0-.09,0-.11h0s0,0-.06-.06l-.26-.16c-.22-.12-.52-.28-.89-.45-.74-.35-1.73-.79-2.78-1.24a97.15,97.15,0,0,0-11.4-4.22,79.7,79.7,0,0,0-9.79-1.69h-.13" transform="translate(-288.02 -204.82)"/></g></g><path class="cls-5" d="M371.74,212.33s1.08,12,1.25,19.59l10.21,0c3.08,0,5.81,0,6.55,0h0a33.59,33.59,0,0,0,4-.6,35.7,35.7,0,0,0,4.18-1c.11-.08.15-.22.15-.45s-.08-.84-.15-1.61c-.11-1.29-.51-7.75-.62-8a21.94,21.94,0,0,0-4-1.95l-.07,0a100,100,0,0,0-11.42-4.22,83.38,83.38,0,0,0-10.08-1.72m1.37,19.47c-.17-7.09-1.12-17.94-1.24-19.33H372a79.7,79.7,0,0,1,9.79,1.69,97.15,97.15,0,0,1,11.4,4.22c1.05.45,2,.89,2.78,1.24.37.17.67.33.89.45a1.85,1.85,0,0,1,.25.16.22.22,0,0,1,.07.06h0s0,.06,0,.11c.07.48.2,2.15.32,3.84s.23,3.41.28,4c.07.78.15,1.29.15,1.6a.7.7,0,0,1,0,.24.19.19,0,0,1-.07.11h0l-.12.05c-.25.08-.76.21-1.42.37-1,.23-2.31.5-3.54.73a28.13,28.13,0,0,1-3,.42c-.74,0-3.48,0-6.56,0l-10.08,0" transform="translate(-288.02 -204.82)"/><path class="cls-5" d="M371.74,212.33h0a83.38,83.38,0,0,1,10.08,1.72,100,100,0,0,1,11.42,4.22l.07,0-.07,0a100,100,0,0,0-11.42-4.22,83.71,83.71,0,0,0-10.08-1.72m25.57,7.93h0c.11.25.51,6.71.62,8,.07.77.15,1.28.15,1.61,0-.33-.08-.84-.15-1.61-.11-1.29-.51-7.75-.62-8m-3.56,11.05a33.59,33.59,0,0,1-4,.6,33.59,33.59,0,0,0,4-.6" transform="translate(-288.02 -204.82)"/><g class="cls-10"><g class="cls-13"><path class="cls-5" d="M403.8,224.27a.39.39,0,0,0-.28.12.38.38,0,0,0-.12.28.2.2,0,0,0,0,.07l.41,2.42a1,1,0,0,0,1,.82.84.84,0,0,0,.27,0l2.2-.61a.49.49,0,0,0,.37-.48.47.47,0,0,0-.24-.42l-3.38-2.1a.42.42,0,0,0-.21-.06h0" transform="translate(-288.02 -204.82)"/></g></g><path class="cls-5" d="M403.8,224.15h0a.53.53,0,0,0-.52.58v0h0l.41,2.42a1.1,1.1,0,0,0,1.09.92h0a1,1,0,0,0,.29,0h0l2.21-.61a.63.63,0,0,0,.16-1.13l-3.38-2.09h0a.54.54,0,0,0-.27-.07m1,3.83a1,1,0,0,1-1-.82l-.41-2.42a.2.2,0,0,1,0-.07.38.38,0,0,1,.12-.28.39.39,0,0,1,.28-.12h0a.42.42,0,0,1,.21.06l3.38,2.09a.5.5,0,0,1-.13.91l-2.2.61a.84.84,0,0,1-.27,0" transform="translate(-288.02 -204.82)"/><path class="cls-5" d="M403.8,224.15h0m0,0a.52.52,0,0,0-.51.58.52.52,0,0,1,.51-.58m.27.07h0m0,0h0l3.38,2.09a.62.62,0,0,1,.29.53.62.62,0,0,0-.29-.53Zm-.79.52h0m1.79,3.31a1,1,0,0,1-.29,0,1,1,0,0,0,.29,0m-.29,0h0" transform="translate(-288.02 -204.82)"/><g class="cls-10"><g class="cls-14"><path class="cls-5" d="M361.29,214.43h-7.88a1.64,1.64,0,0,0-1.63,1.59l-.27,11.45v0a1.63,1.63,0,0,0,1.61,1.63l8,.08h0a1.62,1.62,0,0,0,1.62-1.61l.13-11.53v0a1.64,1.64,0,0,0-1.63-1.63" transform="translate(-288.02 -204.82)"/></g></g><path class="cls-5" d="M361.29,214.31h-7.88a1.76,1.76,0,0,0-1.75,1.71l-.27,11.45v0a1.75,1.75,0,0,0,1.73,1.75l8,.08h0a1.75,1.75,0,0,0,1.74-1.73l.13-11.53v0a1.75,1.75,0,0,0-1.75-1.75m-.12,14.91h0l-8-.08a1.63,1.63,0,0,1-1.61-1.63v0l.27-11.45a1.64,1.64,0,0,1,1.63-1.59h7.88a1.64,1.64,0,0,1,1.63,1.63h0l-.13,11.54a1.62,1.62,0,0,1-1.62,1.61" transform="translate(-288.02 -204.82)"/><path class="cls-5" d="M361.29,214.31h-7.88a1.76,1.76,0,0,0-1.75,1.71l-.27,11.45v0l.27-11.45a1.76,1.76,0,0,1,1.75-1.71h7.88a1.75,1.75,0,0,1,1.75,1.75,1.75,1.75,0,0,0-1.75-1.75m1.62,13.3a1.75,1.75,0,0,1-1.74,1.73,1.75,1.75,0,0,0,1.74-1.73" transform="translate(-288.02 -204.82)"/><g class="cls-10"><g class="cls-15"><path class="cls-5" d="M334.48,214.09a1.49,1.49,0,0,0-1.49,1.43l-.33,8.13v.06a1.5,1.5,0,0,0,.47,1.09l4.05,3.81a1.51,1.51,0,0,0,1,.4l10,.18h0a1.49,1.49,0,0,0,1.49-1.45l.35-12v0a1.48,1.48,0,0,0-1.47-1.49l-14.05-.12Z" transform="translate(-288.02 -204.82)"/></g></g><path class="cls-5" d="M334.48,214h0a1.6,1.6,0,0,0-1.61,1.54l-.33,8.14v.06a1.6,1.6,0,0,0,.51,1.18l4,3.8a1.58,1.58,0,0,0,1.08.44l10,.18h0a1.61,1.61,0,0,0,1.61-1.56l.36-12v-.05a1.61,1.61,0,0,0-1.6-1.61L334.49,214h0Zm13.69,15.22h0l-10-.18a1.51,1.51,0,0,1-1-.4l-4.05-3.81a1.5,1.5,0,0,1-.47-1.09v-.06l.33-8.13a1.49,1.49,0,0,1,1.49-1.43h0l14.05.12A1.48,1.48,0,0,1,350,215.7v0l-.35,12a1.49,1.49,0,0,1-1.49,1.45" transform="translate(-288.02 -204.82)"/><path class="cls-5" d="M334.48,214m0,0a1.6,1.6,0,0,0-1.61,1.54l-.33,8.14v0l.33-8.14a1.6,1.6,0,0,1,1.61-1.54m0,0h0m0,0h0l14.05.12a1.61,1.61,0,0,1,1.6,1.61,1.61,1.61,0,0,0-1.6-1.61L334.49,214h0m15.29,13.78a1.61,1.61,0,0,1-1.61,1.56,1.61,1.61,0,0,0,1.61-1.56m-1.64,1.56h0m0,0h0m0,0h0m0,0h0" transform="translate(-288.02 -204.82)"/><path class="cls-16" d="M385.23,250.78a6,6,0,1,0-6-5.95,5.95,5.95,0,0,0,6,5.95" transform="translate(-288.02 -204.82)"/></g><path class="cls-9" d="M383.62,244.94l.16.34h-.32Zm0-.2-.41.88h.07l.14-.29h.36l.13.29h.15l-.4-.88Z" transform="translate(-288.02 -204.82)"/><polygon class="cls-9" points="97.12 39.94 96.79 40.59 96.78 40.59 96.45 39.94 96.3 39.94 96.3 40.79 96.37 40.79 96.37 40.1 96.38 40.1 96.73 40.79 96.76 40.79 97.11 40.09 97.12 40.09 97.12 40.79 97.26 40.79 97.26 39.94 97.12 39.94"/><polygon class="cls-9" points="97.64 39.94 97.64 40.79 98.21 40.79 98.21 40.74 97.78 40.74 97.78 39.94 97.64 39.94"/><path class="cls-9" d="M386.77,244.94l.15.34h-.31Zm0-.2-.41.88h.07l.13-.29H387l.13.29h.15l-.41-.88Z" transform="translate(-288.02 -204.82)"/><polygon class="cls-9" points="94.68 41.27 94.35 41.92 94.34 41.92 94.01 41.27 93.86 41.27 93.86 42.12 93.93 42.12 93.93 41.43 93.94 41.43 94.29 42.12 94.32 42.12 94.67 41.42 94.68 41.42 94.68 42.12 94.82 42.12 94.82 41.27 94.68 41.27"/><path class="cls-9" d="M383.47,246.27l.15.34h-.31Zm0-.2-.41.88h.07l.13-.29h.37l.13.29h.15l-.4-.88Z" transform="translate(-288.02 -204.82)"/><path class="cls-9" d="M386.14,246.27l.15.34H386Zm0-.2-.42.88h.08l.13-.29h.37l.13.29h.14l-.4-.88Z" transform="translate(-288.02 -204.82)"/><polygon class="cls-9" points="99.96 41.27 99.96 42.12 100.56 42.12 100.56 42.07 100.11 42.07 100.11 41.68 100.41 41.68 100.41 41.63 100.11 41.63 100.11 41.32 100.56 41.32 100.56 41.27 99.96 41.27"/><g class="cls-3"><path class="cls-9" d="M387.59,246.16a.43.43,0,0,1,0,.07.35.35,0,0,0-.13-.08.37.37,0,0,0-.32,0,.39.39,0,0,0-.15.23.5.5,0,0,0,0,.32.38.38,0,0,0,.47.14h0v-.36h-.2v0h.35v.42h0a.67.67,0,0,1-.24.07.82.82,0,0,1-.27,0,.41.41,0,0,1-.27-.24.44.44,0,0,1,.39-.63.63.63,0,0,1,.31,0l.07,0" transform="translate(-288.02 -204.82)"/><path class="cls-9" d="M384.68,246.14a.36.36,0,0,0-.15-.06.43.43,0,0,0-.25,0,.21.21,0,0,0,0,.37l.11.07.17.09.06.05a.17.17,0,0,1-.11.22.41.41,0,0,1-.22,0l-.06-.05-.05.06,0,0a.46.46,0,0,0,.38,0,.24.24,0,0,0,.17-.3c0-.07-.08-.1-.14-.14l-.17-.09-.07,0a.13.13,0,0,1,0-.15.14.14,0,0,1,.1-.08.23.23,0,0,1,.25.07Z" transform="translate(-288.02 -204.82)"/><path class="cls-9" d="M385.52,246.14a.49.49,0,0,0-.16-.06.43.43,0,0,0-.25,0,.22.22,0,0,0-.05.37l.11.07.17.09.06.05a.16.16,0,0,1-.11.22.41.41,0,0,1-.22,0l-.06-.05-.05.06,0,0a.46.46,0,0,0,.38,0,.25.25,0,0,0,.18-.3.32.32,0,0,0-.14-.14l-.18-.09-.07,0a.13.13,0,0,1,0-.15.16.16,0,0,1,.1-.08.25.25,0,0,1,.26.07Z" transform="translate(-288.02 -204.82)"/></g><line class="cls-17" x1="94.51" y1="43.83" x2="99.91" y2="43.83"/><g class="cls-3"><path class="cls-9" d="M385.31,247.44l-.15-.05a.37.37,0,0,0-.23,0,.2.2,0,0,0,0,.34l.1.07.16.09.05,0a.15.15,0,0,1-.1.2.3.3,0,0,1-.21,0l-.05,0,0,.06,0,0a.48.48,0,0,0,.37,0,.23.23,0,0,0,.16-.27.35.35,0,0,0-.13-.14l-.16-.08-.07-.05a.12.12,0,0,1,0-.14.21.21,0,0,1,.1-.08.25.25,0,0,1,.23.07Z" transform="translate(-288.02 -204.82)"/><path class="cls-9" d="M386.13,247.54a.23.23,0,0,0-.07-.07.25.25,0,0,0-.09,0l-.12,0h-.26v.8h.14v-.37h.16l.09,0,.09,0,.06-.06a.26.26,0,0,0,0-.2m-.13.17a.21.21,0,0,1,0,.06l0,0-.08,0h-.1v-.33h.17a.1.1,0,0,1,.05,0,.09.09,0,0,1,0,.06.14.14,0,0,1,0,.07s0,0,0,.06" transform="translate(-288.02 -204.82)"/><path class="cls-9" d="M384.18,248a.15.15,0,0,1,0,.06h-.07l-.06,0-.07-.06,0-.05,0-.05s0,0,0,0,0,0,0-.06h0l0,.08a.3.3,0,0,1-.07.1l-.08-.09-.06-.1.06,0,.06,0,0,0a.07.07,0,0,0,0-.05.13.13,0,0,0,0-.06l0,0,0,0h-.06l-.07,0-.06,0,0,.06s0,0,0,.06,0,0,0,.06a.3.3,0,0,0,0,.08l-.08,0-.06,0,0,.06a.12.12,0,0,0,0,.08.13.13,0,0,0,0,.06l0,0a.05.05,0,0,0,.05,0h.08a.23.23,0,0,0,.12,0l.11-.06a.21.21,0,0,0,.08.06.13.13,0,0,0,.08,0h.06l.05,0s0,0,0,0,0,0,0-.06Zm-.46-.44,0,0,0,0h.07s0,0,0,0,0,0,0,0v0s0,0,0,0l0,0a.08.08,0,0,1,0,0l-.05,0a.14.14,0,0,1,0-.07.14.14,0,0,1,0-.06v0m0,.51-.08,0h-.05l0,0a.08.08,0,0,1,0,0,.13.13,0,0,1,0-.1l0,0,0,0s0,0,0,0l0,.06,0,.06,0,.06,0,.05-.06,0" transform="translate(-288.02 -204.82)"/></g><path class="cls-9" d="M386.56,247.58l.14.31h-.29Zm0-.19-.39.82h.07l.12-.26h.35l.12.26H387l-.38-.82Z" transform="translate(-288.02 -204.82)"/><g class="cls-3"><path class="cls-18" d="M385.14,240.07c-.14.82-.37,2.36-.5,4.06l.22.05c.14-1.43.36-2.75.52-3.63,0,.39.08.87.12,1.39-.12.67-.25,1.45-.35,2.27h.18c.07-.44.15-.86.23-1.26q0,.6,0,1.23l.31-.08c0-.81,0-1.61-.1-2.31.14-.61.26-1.12.36-1.5a1.69,1.69,0,0,0-.31-.13c0,.18-.08.4-.13.65,0-.27-.05-.5-.08-.7a1.84,1.84,0,0,0-.41-.05h-.09m1.29.78c-.12.82-.28,2-.37,3.19l.19-.1c.08-.67.17-1.31.27-1.89,0,.53.05,1.09.06,1.66a2.07,2.07,0,0,0,.72-1.57,2,2,0,0,0-.19-.86c-.08.56-.17,1.22-.24,1.93,0-.9-.06-1.75-.11-2.47a1.89,1.89,0,0,0-.37-.32c0,.14,0,.28,0,.43m-3.28,1.29a2,2,0,0,0,.17.82c.06-.36.12-.71.18-1,.09.43.18.89.26,1.36a2.51,2.51,0,0,0,0,.27,3.11,3.11,0,0,0,.33.29c0-.19,0-.37-.07-.55.07-.36.14-.7.22-1,0,.53.05,1.1.05,1.7a3.27,3.27,0,0,0,.33.14c0-1.2-.06-2.19-.13-3,.1-.41.2-.76.27-1a2,2,0,0,0-.66.3c0,.24,0,.52.07.82s-.17.83-.26,1.33c-.07-.49-.15-1-.23-1.36,0-.19.08-.37.11-.54a2.08,2.08,0,0,0-.6,1.46" transform="translate(-288.02 -204.82)"/><path class="cls-18" d="M387,249.05a.08.08,0,0,1-.09.09h0V249h0c.06,0,.09,0,.09.08m0,0c0-.07-.05-.11-.13-.11h-.07v.23h.07a.12.12,0,0,0,.13-.12m-.29.12v-.23h0v.17h0s0,0,0,0l-.11-.13h0v.23h0V249h0l0,0,.11.14Zm-.35-.09h-.06l0-.06s0,0,0,0a0,0,0,0,0,0,0Zm.07.09-.09-.23h0l-.09.23h0l0-.06h.08l0,.06Zm-.25,0v0h-.09v-.2h0v.23Zm-.22-.23h0v.23h0Zm-.18.14h-.07l0-.06v0h0a0,0,0,0,0,0,0Zm.07.09-.09-.23h0l-.09.23h0l0-.06h.09l0,.06Zm-.28,0v-.23h0V249h-.12v-.09h0v.23h0v-.1h.12v.1Zm-.26-.23h-.18v0h.07v.2h0V249h.06Zm-.34.19h0a.15.15,0,0,1,0,.07h0a.08.08,0,0,0,0-.08m-.08-.19h-.18v0h.06v.2h0V249h.07Zm-.25.23v0h-.08v-.07h.07v0h-.07V249h.07v0h-.12v.23Zm-.19,0-.1-.12.09-.11h0l-.09.1h0v-.1h0v.23h0v-.1h0l.09.1Zm-.27-.08v-.15h0v.14a.07.07,0,0,1,0,0H384s0,0,0,0v-.14h0v.14a.08.08,0,0,0,0,.07l.07,0,.07,0a.14.14,0,0,0,0-.06m-.28.08v-.23h0V249h-.12v-.09h0v.23h0v-.1h.12v.1Zm-.31-.16s0,.05,0,.05h0V249h0a0,0,0,0,1,0,0m0,0s0-.07-.08-.07h-.06v.23h0v-.08h0c.07,0,.09,0,.09-.08" transform="translate(-288.02 -204.82)"/><path class="cls-16" d="M313.62,227.26a6.81,6.81,0,1,0-6.81-6.81,6.8,6.8,0,0,0,6.81,6.81" transform="translate(-288.02 -204.82)"/></g><path class="cls-9" d="M311.78,220.58l.18.39h-.36Zm0-.22-.48,1h.09l.15-.33H312l.15.33h.17l-.46-1Z" transform="translate(-288.02 -204.82)"/><polygon class="cls-9" points="25.49 15.55 25.12 16.3 25.11 16.3 24.73 15.55 24.56 15.55 24.56 16.53 24.64 16.53 24.64 15.74 24.65 15.74 25.05 16.53 25.09 16.53 25.49 15.73 25.49 15.73 25.49 16.53 25.66 16.53 25.66 15.55 25.49 15.55"/><polygon class="cls-9" points="26.09 15.55 26.09 16.53 26.75 16.53 26.75 16.47 26.26 16.47 26.26 15.55 26.09 15.55"/><path class="cls-9" d="M315.38,220.58l.18.39h-.36Zm0-.22-.47,1H315l.16-.33h.42l.15.33h.16l-.46-1Z" transform="translate(-288.02 -204.82)"/><polygon class="cls-9" points="22.7 17.07 22.33 17.83 22.32 17.83 21.94 17.07 21.77 17.07 21.77 18.05 21.85 18.05 21.85 17.26 21.86 17.26 22.27 18.05 22.3 18.05 22.7 17.25 22.7 17.25 22.7 18.05 22.87 18.05 22.87 17.07 22.7 17.07"/><path class="cls-9" d="M311.61,222.1l.18.39h-.36Zm0-.22-.47,1h.08l.16-.33h.42l.15.33h.16l-.46-1Z" transform="translate(-288.02 -204.82)"/><path class="cls-9" d="M314.66,222.1l.17.39h-.36Zm0-.22-.47,1h.08l.16-.33h.41l.15.33h.17l-.46-1Z" transform="translate(-288.02 -204.82)"/><polygon class="cls-9" points="28.75 17.07 28.75 18.05 29.43 18.05 29.43 17.99 28.91 17.99 28.91 17.55 29.26 17.55 29.26 17.49 28.91 17.49 28.91 17.14 29.43 17.14 29.43 17.07 28.75 17.07"/><g class="cls-3"><path class="cls-9" d="M316.32,222l-.05.07a.39.39,0,0,0-.14-.08.41.41,0,0,0-.37,0,.44.44,0,0,0-.17.26.59.59,0,0,0,.05.37.43.43,0,0,0,.53.16,0,0,0,0,1,0,0v-.41H316v-.06h.4v.48l0,0a.92.92,0,0,1-.27.08,1.06,1.06,0,0,1-.31,0,.51.51,0,0,1-.32-.27.61.61,0,0,1,0-.4.53.53,0,0,1,.46-.32.59.59,0,0,1,.35,0,.16.16,0,0,1,.08,0" transform="translate(-288.02 -204.82)"/><path class="cls-9" d="M313,222a.54.54,0,0,0-.18-.06.53.53,0,0,0-.28,0,.24.24,0,0,0-.06.42.57.57,0,0,0,.13.08l.19.11.06.06a.18.18,0,0,1-.12.24.36.36,0,0,1-.25,0,.14.14,0,0,1-.07-.06l-.06.07,0,0a.5.5,0,0,0,.44.06.27.27,0,0,0,.2-.34.31.31,0,0,0-.16-.16l-.2-.1-.08-.06a.14.14,0,0,1,0-.17.22.22,0,0,1,.11-.1.31.31,0,0,1,.29.08Z" transform="translate(-288.02 -204.82)"/><path class="cls-9" d="M314,222a.54.54,0,0,0-.18-.06.53.53,0,0,0-.28,0,.24.24,0,0,0-.06.42.57.57,0,0,0,.13.08l.19.11a.16.16,0,0,1-.06.3.36.36,0,0,1-.25,0,.14.14,0,0,1-.07-.06l-.06.07,0,0a.5.5,0,0,0,.44.06.27.27,0,0,0,.2-.34.31.31,0,0,0-.16-.16l-.19-.1-.09-.06a.16.16,0,0,1,0-.17.22.22,0,0,1,.11-.1.31.31,0,0,1,.29.08Z" transform="translate(-288.02 -204.82)"/></g><line class="cls-17" x1="22.51" y1="20.01" x2="28.69" y2="20.01"/><g class="cls-3"><path class="cls-9" d="M313.71,223.45a.26.26,0,0,0-.16-.06.49.49,0,0,0-.27,0,.23.23,0,0,0,0,.4l.12.07.18.11a.13.13,0,0,1,.06,0,.17.17,0,0,1-.11.23.47.47,0,0,1-.24,0,.14.14,0,0,1-.07-.06l-.05.07,0,0a.46.46,0,0,0,.41.05.25.25,0,0,0,.18-.31.23.23,0,0,0-.14-.15l-.19-.1-.08-.06a.13.13,0,0,1,0-.15.14.14,0,0,1,.11-.09.27.27,0,0,1,.27.07Z" transform="translate(-288.02 -204.82)"/><path class="cls-9" d="M314.65,223.56a.2.2,0,0,0-.08-.08.19.19,0,0,0-.11,0,.27.27,0,0,0-.13,0H314v.92h.15v-.43h.18l.11,0,.1,0a.27.27,0,0,0,.07-.08.31.31,0,0,0,0-.22m-.15.19a.09.09,0,0,1,0,.06l-.06.05h-.21v-.37h.19l.07,0a.16.16,0,0,1,0,.07.19.19,0,0,1,0,.08s0,0,0,.07" transform="translate(-288.02 -204.82)"/><path class="cls-9" d="M312.42,224.12a.1.1,0,0,1-.05.06l-.07,0-.07,0-.08-.07,0,0,0-.06,0-.06s0,0,0-.07h0a.22.22,0,0,1,0,.1l-.09.11L312,224l-.07-.11.08,0,.06,0,.05-.05a.13.13,0,0,0,0-.06.15.15,0,0,0,0-.07.1.1,0,0,0,0-.05l-.05,0H312l-.09,0-.06,0s0,0,0,.06a.13.13,0,0,0,0,.14.36.36,0,0,0,0,.09l-.09.05s-.05,0-.07.06a.18.18,0,0,0-.05.07.2.2,0,0,0,0,.09.13.13,0,0,0,0,.06.1.1,0,0,0,0,0,.09.09,0,0,0,.06,0h.09a.35.35,0,0,0,.14,0,.37.37,0,0,0,.12-.07.28.28,0,0,0,.09.07.19.19,0,0,0,.1,0h.06l.06,0,0-.05a.14.14,0,0,0,0-.06Zm-.52-.51s0,0,0,0l0,0H312l0,0,0,0v.05a.07.07,0,0,1,0,0s0,0,0,0a.08.08,0,0,1,0,0l-.05,0,0-.08a.2.2,0,0,1,0-.07.09.09,0,0,1,0,0m.05.58a.15.15,0,0,1-.09,0h-.05l-.05,0,0,0s0,0,0-.06a.43.43,0,0,1,0,0l0-.05,0,0,.05,0,0,.07a.21.21,0,0,1,0,.06l.05.07,0,.06-.08,0" transform="translate(-288.02 -204.82)"/></g><path class="cls-9" d="M315.14,223.6l.17.36H315Zm0-.21-.44.94h.08l.14-.31h.39l.14.31h.16l-.43-.94Z" transform="translate(-288.02 -204.82)"/><g class="cls-3"><path class="cls-18" d="M313.52,215c-.16.94-.43,2.71-.57,4.64a1,1,0,0,0,.25.06c.16-1.63.41-3.14.59-4.15,0,.46.1,1,.14,1.59-.14.78-.28,1.67-.4,2.6h.21c.08-.5.16-1,.25-1.44,0,.45,0,.93,0,1.4l.36-.09c0-.93-.06-1.83-.12-2.64.16-.69.31-1.28.42-1.71a2.17,2.17,0,0,0-.35-.15c0,.21-.1.46-.16.74,0-.3-.06-.57-.08-.8a2.61,2.61,0,0,0-.48-.05h-.1m1.48.9c-.15.93-.32,2.24-.43,3.64l.22-.11c.09-.76.2-1.5.31-2.16,0,.6.06,1.24.07,1.9a2.39,2.39,0,0,0,.82-1.8,2.46,2.46,0,0,0-.21-1c-.1.64-.2,1.39-.29,2.21,0-1-.06-2-.12-2.82a2.14,2.14,0,0,0-.42-.37c0,.15,0,.32.05.49m-3.75,1.47a2.47,2.47,0,0,0,.19.94c.07-.41.14-.81.21-1.18.1.49.2,1,.29,1.56,0,.1,0,.2-.05.3a2,2,0,0,0,.39.33c0-.21-.06-.41-.08-.62.07-.41.16-.8.24-1.18,0,.61.06,1.26.07,1.94a1.53,1.53,0,0,0,.37.16c0-1.36-.07-2.5-.14-3.37.11-.46.22-.86.3-1.18a2.39,2.39,0,0,0-.76.35c0,.27.06.59.08.94s-.19.95-.29,1.51c-.08-.55-.18-1.08-.27-1.54l.13-.62a2.34,2.34,0,0,0-.68,1.66" transform="translate(-288.02 -204.82)"/><path class="cls-18" d="M315.58,225.28c0,.06,0,.1-.1.1h0v-.19h0a.09.09,0,0,1,.1.09m.05,0a.13.13,0,0,0-.15-.13h-.07v.27h.07a.13.13,0,0,0,.15-.14m-.33.14v-.27h0v.2h0l0,0-.12-.16h0v.27h0v-.2h0s0,0,0,0l.12.17Zm-.4-.11h-.07l0-.07a0,0,0,0,1,0,0h0a0,0,0,0,0,0,0Zm.09.11-.11-.27h0l-.1.27h0l0-.07h.1l0,.07Zm-.3,0v0h-.09v-.23h-.05v.27Zm-.24-.27h-.05v.27h.05Zm-.21.16h-.08l0-.07v0s0,0,0,0Zm.08.11-.1-.27h0l-.11.27h.05l0-.07h.1l0,.07Zm-.32,0v-.27h0v.11h-.13v-.11h-.05v.27h.05v-.12H314v.12Zm-.3-.27h-.2v0h.08v.23h0v-.23h.07Zm-.38.22h0a.22.22,0,0,1,0,.08h0a.12.12,0,0,0,0-.1m-.1-.22H313v0h.08v.23h0v-.23h.08Zm-.28.27v0h-.1v-.08h.09v0h-.09v-.07h.09v0h-.14v.27Zm-.22,0-.12-.14.11-.13h0l-.1.12h0v-.12h0v.27h0v-.12h0l.1.12Zm-.31-.1v-.17h0v.17a.07.07,0,0,1,0,.05l-.05,0a.06.06,0,0,1-.05,0,.08.08,0,0,1,0-.05v-.17h0v.17a.11.11,0,0,0,0,.08l.07,0a.12.12,0,0,0,.09,0,.12.12,0,0,0,0-.07m-.32.1v-.27h0v.11h-.13v-.11h-.05v.27h.05v-.12h.13v.12Zm-.35-.18a0,0,0,0,1-.05,0h0v-.1h0s.06,0,.06.05m0,0a.08.08,0,0,0-.09-.09h-.06v.27h0v-.1h0c.08,0,.1,0,.1-.08" transform="translate(-288.02 -204.82)"/><path class="cls-19" d="M356.41,248.43H341.1a3.56,3.56,0,1,1,0-7.12h15.31a3.56,3.56,0,1,1,0,7.12Z" transform="translate(-288.02 -204.82)"/></g><text class="cls-20" transform="translate(54.44 38.39)"><tspan class="cls-21">BOOKIN</tspan><tspan class="cls-22" x="5.37" y="0">G </tspan><tspan class="cls-23" x="6.79" y="0">H</tspan><tspan class="cls-24" x="7.8" y="0">O</tspan><tspan class="cls-25" x="8.84" y="0">TLIN</tspan><tspan x="11.91" y="0">E</tspan></text><g class="cls-3"><text class="cls-26" transform="translate(52.3 40.89)">0800 44 33 0<tspan class="cls-27" x="15.48" y="0">0</tspan></text></g><text class="cls-28" transform="translate(52.3 40.89)">0800 44 33 0<tspan class="cls-27" x="15.48" y="0">0</tspan></text><text class="cls-29" transform="translate(54.24 42.54)"><tspan class="cls-30">C</tspan><tspan class="cls-31" x="0.79" y="0">al</tspan><tspan class="cls-32" x="1.8" y="0">l</tspan><tspan class="cls-31" x="2.13" y="0">,</tspan><tspan class="cls-33" x="2.44" y="0"> </tspan><tspan class="cls-34" x="2.7" y="0">W</tspan><tspan class="cls-35" x="3.84" y="0">h</tspan><tspan class="cls-36" x="4.61" y="0">at</tspan><tspan class="cls-35" x="5.73" y="0">s</tspan><tspan class="cls-34" x="6.29" y="0">A</tspan><tspan class="cls-37" x="7.12" y="0">pp or SM</tspan><tspan x="12.32" y="0">S </tspan></text></g></g></g></svg>